<svg version="1.1" id="Layer_1" xmlns="http://www.w3.org/2000/svg" xmlns:xlink="http://www.w3.org/1999/xlink" x="0px" y="0px"
	 width="100%" viewBox="0 0 188 183" enable-background="new 0 0 188 183" xml:space="preserve">
<path fill="#EEEBEA" opacity="1.000000" stroke="none" 
	d="
M12.000000,1.000000 
	C70.927422,1.000000 129.854843,1.000000 189.000000,1.000000 
	C189.000000,60.354050 189.000000,119.708366 188.717773,179.221405 
	C187.290375,180.920074 186.145187,182.460037 185.000000,184.000000 
	C123.742104,184.000000 62.484215,184.000000 1.000000,184.000000 
	C1.000000,126.979301 1.000000,69.958313 1.287382,12.768045 
	C3.756613,10.185582 5.942406,7.775939 8.118830,5.357862 
	C9.420136,3.912067 10.706770,2.453065 12.000000,1.000000 
M31.251345,147.450958 
	C34.315575,146.467010 35.923069,144.463409 34.067974,141.521057 
	C33.322117,140.338058 31.004652,139.438812 29.559380,139.625443 
	C28.382263,139.777451 26.336870,142.261459 26.593708,142.804321 
	C27.445187,144.604034 29.163260,145.993729 31.251345,147.450958 
M72.429504,45.873081 
	C71.408890,43.174999 69.520691,41.501156 66.765869,42.976654 
	C65.525764,43.640858 64.290627,45.936531 64.509552,47.249046 
	C64.731087,48.577213 67.243141,50.801319 67.890640,50.535458 
	C69.673447,49.803436 71.005386,47.973339 72.429504,45.873081 
M155.791260,127.227882 
	C152.740921,128.299301 151.344131,130.425339 153.165115,133.245132 
	C153.910736,134.399734 156.254654,135.230316 157.687042,135.009872 
	C158.838989,134.832611 160.785309,132.332977 160.511261,131.764923 
	C159.658615,129.997543 157.917526,128.658768 155.791260,127.227882 
M33.140499,43.512772 
	C31.129002,43.817169 28.912035,43.736786 27.220348,44.640106 
	C26.648348,44.945549 26.804317,48.497997 27.703663,49.212921 
	C28.910721,50.172462 32.344959,50.529961 32.731339,49.887646 
	C33.685448,48.301548 33.447754,45.998531 33.140499,43.512772 
M122.323921,44.451401 
	C120.734283,43.868965 118.743179,42.419334 117.656151,42.922569 
	C116.282890,43.558319 114.546097,46.229504 114.947144,47.223118 
	C115.565178,48.754349 117.897194,50.585545 119.446716,50.536556 
	C122.406067,50.442997 123.447693,48.040504 122.323921,44.451401 
M26.904007,129.318161 
	C27.614365,131.217422 27.893875,133.579102 29.221384,134.815994 
	C29.861135,135.412064 32.870853,134.300110 34.045216,133.169739 
	C34.736702,132.504135 34.478909,129.863785 33.693764,128.852448 
	C31.898451,126.539902 29.511070,126.534538 26.904007,129.318161 
M153.882797,140.286407 
	C153.556549,141.919006 152.439880,144.103043 153.099182,145.048065 
	C153.971588,146.298523 156.512054,147.447968 157.819351,147.029221 
	C159.090775,146.621918 160.646973,144.030411 160.427460,142.662964 
	C159.924911,139.532455 157.506012,138.581223 153.882797,140.286407 
M114.847954,144.781601 
	C116.764282,145.549225 118.649895,146.712997 120.613945,146.865280 
	C121.283073,146.917160 123.055534,144.098755 122.721008,143.167816 
	C122.169975,141.634369 120.433800,139.691177 118.982933,139.493515 
	C116.109024,139.101990 114.468521,141.029892 114.847954,144.781601 
M72.440308,156.204147 
	C71.163704,154.623428 70.131180,152.618881 68.488907,151.673096 
	C67.842880,151.301041 65.068375,153.042999 64.660934,154.281952 
	C64.250694,155.529434 65.120079,157.987823 66.236053,158.783875 
	C68.612495,160.479034 70.900887,159.608292 72.440308,156.204147 
M64.452713,60.044010 
	C66.319862,60.861683 68.187988,62.230392 70.053680,62.227093 
	C70.804932,62.225765 72.285477,59.106831 72.060478,57.613770 
	C71.888863,56.474972 68.972214,54.564247 68.293762,54.922573 
	C66.640366,55.795826 65.577995,57.788128 64.452713,60.044010 
M67.669708,139.334122 
	C66.520409,140.729019 64.918686,141.978775 64.405708,143.577820 
	C64.134392,144.423553 65.743172,146.848907 66.528702,146.860718 
	C68.350777,146.888107 71.142685,146.418365 71.833115,145.189987 
	C73.601730,142.043335 71.772644,139.979721 67.669708,139.334122 
M72.210640,166.196228 
	C70.863487,163.473434 68.577217,162.585876 66.203690,164.272079 
	C65.092018,165.061813 64.237900,167.552231 64.663254,168.793411 
	C65.093948,170.050156 67.884193,171.802246 68.523186,171.428146 
	C70.147469,170.477203 71.146935,168.459000 72.210640,166.196228 
M153.395065,49.214054 
	C155.177216,49.535252 157.437500,50.653263 158.606125,49.952023 
	C159.759171,49.260124 160.659348,46.344963 160.104111,45.108593 
	C159.534973,43.841267 156.874344,42.527195 155.471619,42.828430 
	C152.675751,43.428837 151.724503,45.781597 153.395065,49.214054 
M120.751343,159.103897 
	C123.663353,155.823929 123.560905,152.663925 120.315155,151.834656 
	C118.954147,151.486923 116.930313,151.930969 115.861710,152.809982 
	C115.002495,153.516769 114.430222,156.150894 114.953316,156.651031 
	C116.294930,157.933777 118.317230,158.504593 120.751343,159.103897 
M152.706863,35.866837 
	C154.242752,38.730186 156.554916,39.667110 159.111832,37.564819 
	C160.098724,36.753403 160.808060,34.348576 160.310974,33.303993 
	C159.680664,31.979502 157.019501,30.192387 156.420090,30.556606 
	C154.779022,31.553747 153.759338,33.573524 152.706863,35.866837 
M153.055099,56.562572 
	C151.659790,59.618912 152.661911,62.088799 155.765579,62.556274 
	C157.197113,62.771896 159.293304,60.954956 160.441391,59.536247 
	C160.920883,58.943733 159.967438,56.037292 159.229843,55.843796 
	C157.450119,55.376934 155.413696,55.888741 153.055099,56.562572 
M71.510872,31.945404 
	C69.492310,31.837416 67.332703,31.283777 65.528976,31.854622 
	C64.866043,32.064426 64.296463,35.538258 65.024803,36.437531 
	C65.974953,37.610664 69.259430,38.630993 69.768982,38.079929 
	C71.028694,36.717594 71.280037,34.422848 71.510872,31.945404 
M71.865593,68.637650 
	C69.726547,68.381256 67.553261,67.845932 65.476990,68.100838 
	C65.055367,68.152618 64.300003,71.602242 64.971085,72.724365 
	C65.647362,73.855164 68.698639,74.970856 69.314697,74.448471 
	C70.725204,73.252434 71.285316,71.053520 71.865593,68.637650 
M29.809387,62.807423 
	C33.040966,62.939537 35.199802,61.421661 34.561932,58.192825 
	C34.290787,56.820316 32.054077,55.275188 30.463779,54.922897 
	C29.416897,54.690990 26.815886,56.517090 26.863884,57.302231 
	C26.973675,59.098110 28.281919,60.820721 29.809387,62.807423 
M64.658615,81.090591 
	C63.547417,84.859726 65.126312,86.946617 68.876518,86.771744 
	C70.088547,86.715233 71.884178,85.081413 72.199059,83.856964 
	C72.511559,82.641823 71.551567,80.026955 70.696548,79.809776 
	C68.975296,79.372574 66.946190,80.147408 64.658615,81.090591 
M31.934772,151.717224 
	C30.120794,152.657974 28.306816,153.598740 26.492840,154.539490 
	C27.373722,156.109833 27.907799,158.337814 29.244953,159.042969 
	C30.319447,159.609604 33.655003,158.494995 33.737728,157.841599 
	C33.974903,155.968231 33.068947,153.950119 31.934772,151.717224 
M127.482155,45.836121 
	C128.414963,50.194641 130.978210,52.056324 133.548874,50.037914 
	C134.560349,49.243721 135.565765,47.425510 135.338882,46.329247 
	C135.059128,44.977646 133.506165,42.931503 132.476288,42.915337 
	C130.888412,42.890404 129.277481,44.335152 127.482155,45.836121 
M114.547699,22.456163 
	C115.021561,25.493673 116.986839,26.967436 119.763741,26.119877 
	C121.088654,25.715488 122.762894,23.694921 122.748817,22.423359 
	C122.734077,21.092827 120.651421,18.559908 119.881081,18.706003 
	C118.002609,19.062252 116.360306,20.663807 114.547699,22.456163 
M127.604805,129.931015 
	C127.960640,134.514572 130.790115,136.903244 133.416214,134.609543 
	C134.591049,133.583420 135.380585,130.457184 134.678741,129.264740 
	C132.860565,126.175613 130.166138,126.460289 127.604805,129.931015 
M30.513210,30.285025 
	C27.559618,31.023382 25.395786,32.628517 26.823572,35.856270 
	C27.394102,37.146046 29.564722,38.385632 31.031149,38.414364 
	C32.213676,38.437538 34.594425,36.275860 34.419060,35.659668 
	C33.876678,33.753902 32.366730,32.123508 30.513210,30.285025 
M72.258835,130.030945 
	C70.744987,127.089455 68.273003,126.013130 65.869324,128.306107 
	C64.823219,129.304047 65.022934,132.113480 65.457268,133.906281 
	C65.628387,134.612625 68.480431,135.543884 69.235580,135.045456 
	C70.643753,134.115952 71.410767,132.215073 72.258835,130.030945 
M122.868973,132.141571 
	C123.031456,128.559937 121.230980,126.744133 117.796745,127.490646 
	C116.566147,127.758148 114.996529,129.552216 114.841156,130.805679 
	C114.688004,132.041199 116.133980,134.604553 116.869675,134.601349 
	C118.804153,134.592911 120.733910,133.505386 122.868973,132.141571 
M117.930351,171.511887 
	C119.594299,170.355637 121.258247,169.199402 122.922195,168.043152 
	C121.869904,166.582870 121.086464,164.420044 119.681160,163.882294 
	C118.535133,163.443756 115.309303,164.997330 115.330811,165.582062 
	C115.401535,167.504288 116.530334,169.387589 117.930351,171.511887 
M115.135231,32.503525 
	C115.832901,34.417614 116.112686,36.750889 117.419647,38.053787 
	C117.998634,38.630974 121.232597,37.588524 122.181221,36.411072 
	C122.900795,35.517910 122.284248,32.030983 121.610069,31.824167 
	C119.778824,31.262394 117.600967,31.830490 115.135231,32.503525 
M30.550297,86.974251 
	C33.840805,86.339584 35.908108,84.609421 34.166382,81.208443 
	C33.548557,80.002045 31.237398,78.986961 29.788176,79.093536 
	C28.603580,79.180641 26.471674,81.327179 26.659187,82.099541 
	C27.082443,83.842941 28.681219,85.300949 30.550297,86.974251 
M26.528307,105.940529 
	C26.919622,107.286980 26.994576,109.524490 27.766613,109.798599 
	C29.494669,110.412125 31.569767,110.048172 33.503529,110.082314 
	C33.532536,108.177597 34.352795,105.617744 33.428959,104.501968 
	C31.386116,102.034737 28.771330,102.603477 26.528307,105.940529 
M156.554047,99.109245 
	C160.252487,98.432976 161.897400,96.375809 159.908173,92.920311 
	C159.289124,91.844933 157.058411,90.962769 155.793152,91.201035 
	C154.533890,91.438164 152.494980,93.443199 152.679703,94.232811 
	C153.087402,95.975494 154.678528,97.441307 156.554047,99.109245 
M139.970596,143.469025 
	C140.595749,146.602570 142.375793,148.400314 145.542068,147.049133 
	C146.711624,146.550018 148.057907,144.411682 147.859528,143.276917 
	C147.608002,141.837936 145.692551,139.488617 144.802597,139.619873 
	C143.104385,139.870346 141.624237,141.599152 139.970596,143.469025 
M135.585083,95.390495 
	C135.051086,91.606972 132.965851,89.993820 129.400925,91.643700 
	C128.380219,92.116096 127.343666,94.167557 127.548920,95.263824 
	C127.800835,96.609200 129.470184,98.791527 130.309769,98.696411 
	C132.090485,98.494698 133.730621,97.051727 135.585083,95.390495 
M91.603828,134.803009 
	C93.418304,134.255142 95.882790,134.210953 96.828804,132.990112 
	C97.509514,132.111664 96.662018,129.140488 95.557343,128.091599 
	C94.759010,127.333580 91.159950,127.839630 90.997658,128.407333 
	C90.470398,130.251709 90.949562,132.383804 91.603828,134.803009 
M134.240540,67.927345 
	C132.216553,68.081673 130.021545,67.845795 128.267014,68.614883 
	C127.699593,68.863609 127.664787,72.294861 128.523041,73.277214 
	C129.387787,74.266983 132.698761,74.763603 133.121384,74.174057 
	C134.203537,72.664520 134.276184,70.431297 134.240540,67.927345 
M83.445961,140.149963 
	C80.597565,138.513046 78.018974,139.074387 77.268715,142.197495 
	C76.928787,143.612518 78.499359,145.853439 79.790184,147.122818 
	C80.350525,147.673859 83.326866,147.062012 83.575912,146.381683 
	C84.205254,144.662491 83.910446,142.604980 83.445961,140.149963 
M154.337128,79.446037 
	C153.945221,81.337761 152.928482,83.411285 153.405365,85.050209 
	C153.673798,85.972763 156.681000,86.944534 157.950546,86.489235 
	C159.194550,86.043091 160.633911,83.742126 160.514648,82.384621 
	C160.251251,79.386299 157.991180,78.323982 154.337128,79.446037 
M155.772110,123.109299 
	C157.426376,121.889717 159.369308,120.884010 160.539017,119.305374 
	C160.844772,118.892708 158.976990,115.925377 157.686630,115.539894 
	C156.397568,115.154808 153.238205,116.545959 153.243088,117.139175 
	C153.258881,119.061203 154.350784,120.974388 155.772110,123.109299 
M71.220169,97.995811 
	C71.385208,96.212898 72.306633,93.855339 71.508209,92.804413 
	C70.665062,91.694603 67.775673,91.025696 66.532822,91.653694 
	C65.345085,92.253853 64.274315,95.004677 64.657951,96.394501 
	C65.447891,99.256264 67.937828,99.733635 71.220169,97.995811 
M26.362976,118.702293 
	C27.924011,120.185333 29.310713,122.018036 31.153164,122.936653 
	C31.700163,123.209381 34.350739,121.032646 34.537975,119.758026 
	C34.724060,118.491280 32.996929,115.749626 32.156181,115.768478 
	C30.266222,115.810860 28.405619,117.162300 26.362976,118.702293 
M26.314341,95.377892 
	C28.161125,96.554085 29.905085,98.076126 31.923180,98.676117 
	C32.463226,98.836670 34.690582,96.121010 34.598289,94.836823 
	C34.502407,93.502739 32.262691,91.101974 31.440668,91.288116 
	C29.574871,91.710625 28.003860,93.434914 26.314341,95.377892 
M135.565918,83.322922 
	C134.192535,79.092964 131.509995,77.502266 129.103668,79.698868 
	C128.163345,80.557243 127.315231,82.439735 127.624573,83.508659 
	C128.004929,84.822990 129.718216,86.743423 130.713974,86.662491 
	C132.332504,86.530937 133.836197,84.986870 135.565918,83.322922 
M158.772903,110.644386 
	C161.001938,108.751472 161.757233,106.405106 159.398743,104.402481 
	C158.316162,103.483261 155.789444,103.125343 154.617599,103.775185 
	C153.474213,104.409264 152.293243,107.532173 152.756912,108.022339 
	C154.082825,109.424019 156.235611,110.043480 158.772903,110.644386 
M117.894402,111.089218 
	C119.571892,109.941139 121.595032,109.046913 122.730553,107.500793 
	C123.104172,106.992104 121.400513,103.874420 120.252586,103.600296 
	C118.749474,103.241348 116.855576,104.518799 115.129768,105.092354 
	C115.803528,107.016556 116.477287,108.940758 117.894402,111.089218 
M76.925995,35.258995 
	C78.053070,38.345028 80.298943,39.751724 83.056938,37.838959 
	C84.202827,37.044254 84.598679,34.407497 84.391312,32.724758 
	C84.277969,31.805017 81.714775,30.199749 81.089935,30.521654 
	C79.431877,31.375847 78.226959,33.109604 76.925995,35.258995 
M77.913338,49.384155 
	C80.951019,51.771019 83.548958,51.431938 84.757736,47.657692 
	C85.136047,46.476440 84.277649,44.238552 83.247292,43.455486 
	C82.249031,42.696815 79.428001,42.574039 78.951279,43.254112 
	C77.920738,44.724266 77.878456,46.887177 77.913338,49.384155 
M89.487312,46.566223 
	C91.006622,47.959930 92.393768,49.586697 94.141418,50.577717 
	C94.559952,50.815044 96.951561,49.022190 97.063820,48.010784 
	C97.232491,46.491222 96.673882,44.181252 95.569710,43.368168 
	C92.690590,41.248035 90.729050,42.967831 89.487312,46.566223 
M102.622459,48.695328 
	C104.465530,49.207352 106.442596,50.344612 108.099800,49.989429 
	C109.045647,49.786705 110.362495,46.772923 109.909546,45.704021 
	C109.306061,44.279819 107.143272,43.516365 105.650284,42.469086 
	C104.531181,44.318089 103.412079,46.167088 102.622459,48.695328 
M147.043167,49.377640 
	C146.781616,47.340828 146.880325,45.132774 146.042389,43.369938 
	C145.785904,42.830349 142.377762,42.914261 141.468933,43.798294 
	C140.505310,44.735603 140.099426,48.051136 140.675522,48.421455 
	C142.277176,49.451008 144.514908,49.491035 147.043167,49.377640 
M146.962616,31.758387 
	C144.900070,29.796003 142.579910,29.614326 141.065475,32.000881 
	C140.299774,33.207512 140.254639,35.746571 141.049576,36.819176 
	C141.825455,37.866070 145.199463,38.554016 145.495483,38.109470 
	C146.578583,36.482906 146.853699,34.318333 146.962616,31.758387 
M144.393906,159.604736 
	C145.628860,158.265686 147.306686,157.097610 147.916763,155.517334 
	C148.234070,154.695389 146.692078,152.142929 145.945190,152.123856 
	C144.128693,152.077438 141.389404,152.503082 140.634308,153.730545 
	C138.880264,156.581833 140.557251,158.693542 144.393906,159.604736 
M155.174805,159.259857 
	C158.175217,160.033463 160.438904,158.891602 160.493881,155.880432 
	C160.519806,154.460403 158.742691,152.452560 157.284180,151.758774 
	C156.338715,151.309036 153.364395,152.620087 153.275070,153.375717 
	C153.063446,155.166214 154.029327,157.095901 155.174805,159.259857 
M84.026192,158.301224 
	C85.697769,155.626984 85.586014,153.071793 82.489250,151.894196 
	C81.214325,151.409378 78.845718,152.122894 77.837959,153.143692 
	C77.030388,153.961731 76.964157,157.084610 77.551308,157.409546 
	C79.264053,158.357468 81.469101,158.415863 84.026192,158.301224 
M167.267044,62.354740 
	C169.167603,61.630695 171.393555,61.266937 172.800491,59.996311 
	C173.326126,59.521610 172.403717,56.231514 171.298752,55.502399 
	C170.181793,54.765369 166.736755,55.228149 166.557083,55.832699 
	C166.003189,57.696465 166.521805,59.878975 167.267044,62.354740 
M64.218590,22.419348 
	C65.758583,23.731760 67.135963,25.529076 68.915901,26.125986 
	C69.663239,26.376608 72.267685,24.053583 72.231514,22.960001 
	C72.181190,21.438665 70.313049,18.668880 69.453865,18.754345 
	C67.645706,18.934208 65.987762,20.624161 64.218590,22.419348 
M40.721764,31.269688 
	C40.608604,33.306469 40.073872,35.467125 40.615814,37.311405 
	C40.800209,37.938911 44.159977,38.472870 45.225197,37.770386 
	C46.332649,37.040043 47.301350,33.834141 46.782673,33.341881 
	C45.407925,32.037140 43.197403,31.613016 40.721764,31.269688 
M82.817909,171.239822 
	C85.686729,168.014267 85.645462,164.877701 82.503296,163.948563 
	C81.190514,163.560333 79.163055,163.970062 78.111763,164.821274 
	C77.248665,165.520126 76.638992,168.082108 77.164139,168.636154 
	C78.419182,169.960251 80.410164,170.586792 82.817909,171.239822 
M52.435963,36.682884 
	C54.428345,36.983757 56.498089,37.697174 58.368294,37.346481 
	C58.967690,37.234081 59.755344,33.938877 59.153431,32.772541 
	C58.539272,31.582468 55.331516,30.288271 54.983238,30.659048 
	C53.639957,32.089088 52.986191,34.166813 52.435963,36.682884 
M46.635380,157.704285 
	C46.043880,155.739700 45.798374,153.525253 44.663185,151.953293 
	C44.292648,151.440186 40.962132,152.101669 40.157742,153.136902 
	C39.360500,154.162933 39.540653,157.515640 40.168983,157.782394 
	C41.914642,158.523468 44.116146,158.190765 46.635380,157.704285 
M103.689896,37.733654 
	C105.679329,37.317696 107.870995,37.248589 109.536667,36.277378 
	C110.045616,35.980629 109.646996,32.631237 108.682434,31.727531 
	C107.732773,30.837797 104.330383,30.733927 104.107475,31.230122 
	C103.309013,33.007477 103.402359,35.185463 103.689896,37.733654 
M94.988022,91.217186 
	C90.522812,91.327438 88.331940,93.459282 89.863289,96.447922 
	C90.445770,97.584702 91.954475,98.782707 93.155266,98.914833 
	C94.335480,99.044716 96.662567,97.947327 96.726357,97.231613 
	C96.890259,95.392570 96.078529,93.466583 94.988022,91.217186 
M133.652908,122.577950 
	C134.043015,120.718094 135.058228,118.673462 134.583969,117.069099 
	C134.308548,116.137306 131.173187,115.043205 130.166550,115.585312 
	C128.850403,116.294075 128.366531,118.548347 127.524620,120.137741 
	C129.336197,121.058540 131.147766,121.979332 133.652908,122.577950 
M128.879700,31.392803 
	C128.843597,33.428978 128.416702,35.589527 129.001801,37.427998 
	C129.185074,38.003838 132.568954,38.380444 133.623199,37.631393 
	C134.697250,36.868267 135.528900,33.600327 135.027863,33.191212 
	C133.546997,31.982042 131.355164,31.643553 128.879700,31.392803 
M72.108582,108.894394 
	C71.736610,107.264633 71.864655,104.816177 70.868782,104.207962 
	C69.561363,103.409470 66.752953,103.372009 65.731041,104.284737 
	C64.729561,105.179207 64.364662,108.183372 65.120895,109.366142 
	C66.842758,112.059242 69.451073,111.880737 72.108582,108.894394 
M119.441505,123.146111 
	C120.608383,121.933769 122.280907,120.889389 122.759560,119.448433 
	C123.064857,118.529335 121.582031,115.964516 120.935829,115.976776 
	C118.937149,116.014694 115.903435,116.342400 115.179001,117.630394 
	C113.514313,120.590149 115.431877,122.581184 119.441505,123.146111 
M65.564262,122.149765 
	C67.524635,122.064781 69.614838,122.341576 71.378571,121.708633 
	C72.041664,121.470657 72.491318,118.903664 72.046898,117.796364 
	C71.592758,116.664848 70.025215,115.519112 68.764771,115.261383 
	C65.389931,114.571281 63.918320,117.204269 65.564262,122.149765 
M46.644245,48.819885 
	C47.825466,46.043064 47.165718,43.693665 44.295235,42.833210 
	C43.096546,42.473892 40.713821,43.288223 40.149673,44.289925 
	C39.441830,45.546780 39.558681,48.738731 40.181778,48.994411 
	C41.939865,49.715824 44.138767,49.362946 46.644245,48.819885 
M135.554901,106.729103 
	C134.028336,105.516045 132.642395,103.930008 130.905380,103.274994 
	C130.218475,103.015953 128.070312,104.664352 127.811249,105.739220 
	C127.491570,107.065552 127.961853,109.352196 128.941101,110.080452 
	C132.157471,112.472397 134.445267,111.116669 135.554901,106.729103 
M59.808735,144.213898 
	C58.546860,142.586243 57.491219,140.676422 55.893299,139.508560 
	C55.433643,139.172638 52.618351,140.750763 52.303814,141.855713 
	C51.908249,143.245331 52.456303,145.663818 53.511429,146.550919 
	C55.846291,148.513977 58.106773,147.524323 59.808735,144.213898 
M106.429993,139.308838 
	C102.653801,139.862717 101.020256,141.945190 102.853523,145.450836 
	C103.413582,146.521820 105.611038,147.325882 106.967148,147.207153 
	C108.077660,147.109955 110.045731,145.244370 109.892845,144.541183 
	C109.501389,142.740646 108.139694,141.151062 106.429993,139.308838 
M122.934219,70.486641 
	C121.267738,69.278328 119.727402,67.593170 117.871170,67.102135 
	C117.153191,66.912216 114.882744,69.407677 114.850235,70.717728 
	C114.818596,71.992432 116.981270,74.527840 117.764694,74.375237 
	C119.619431,74.013969 121.227486,72.386269 122.934219,70.486641 
M156.511810,66.733803 
	C155.154984,67.956009 153.393265,68.971176 152.616608,70.490044 
	C152.242859,71.221001 153.620956,73.874954 154.391098,73.958969 
	C156.240616,74.160706 159.087433,74.002029 159.935974,72.831703 
	C161.908905,70.110588 160.401337,67.868111 156.511810,66.733803 
M115.989830,61.742550 
	C118.922783,63.640465 121.499916,63.351624 122.646606,59.883160 
	C123.037605,58.700470 122.237488,56.269894 121.240967,55.696335 
	C119.962845,54.960693 117.037979,54.860477 116.436478,55.676338 
	C115.437363,57.031513 115.723770,59.334457 115.989830,61.742550 
M58.740353,43.918934 
	C56.684277,42.055992 54.360706,41.680462 52.824654,44.130539 
	C52.059696,45.350677 52.001698,47.896610 52.799625,48.963455 
	C53.582867,50.010666 56.956074,50.695930 57.275993,50.228420 
	C58.373684,48.624359 58.630569,46.444923 58.740353,43.918934 
M89.601196,144.126144 
	C90.541214,146.933441 92.617432,148.490906 95.158394,146.902695 
	C96.403053,146.124741 96.871346,143.437729 96.855515,141.622025 
	C96.848709,140.841507 94.227287,139.169586 93.647606,139.482834 
	C92.026825,140.358627 90.851624,142.059052 89.601196,144.126144 
M105.021538,159.363815 
	C106.754265,158.282990 108.797623,157.458649 110.030678,155.965256 
	C110.401222,155.516449 108.816528,152.456253 107.578102,151.957977 
	C106.353745,151.465363 103.114189,152.591019 103.065155,153.194260 
	C102.909264,155.112076 103.828514,157.117279 105.021538,159.363815 
M134.051712,140.389069 
	C132.058960,140.668762 129.881088,140.583527 128.183411,141.444839 
	C127.656570,141.712128 127.858521,145.103683 128.774918,146.050827 
	C129.682755,146.989105 133.081741,147.263672 133.348785,146.756226 
	C134.241180,145.060364 134.220200,142.883881 134.051712,140.389069 
M34.348099,69.092354 
	C32.702969,66.688255 30.472628,65.767479 28.140043,67.701134 
	C27.128012,68.540077 26.200914,71.038879 26.710396,71.813370 
	C27.614021,73.187042 30.203686,74.950546 31.079588,74.516449 
	C32.667309,73.729546 33.514648,71.448761 34.348099,69.092354 
M172.960785,129.858902 
	C171.056900,129.130371 169.163803,127.966499 167.243042,127.918892 
	C166.605194,127.903084 165.096863,130.973648 165.442062,132.234756 
	C165.795624,133.526382 168.614075,135.463364 169.160934,135.134506 
	C170.801849,134.147736 171.860657,132.192947 172.960785,129.858902 
M115.435333,85.311455 
	C117.610443,85.394981 119.837669,85.742752 121.915512,85.333038 
	C122.318008,85.253670 122.801437,81.742821 122.040306,80.676811 
	C121.267799,79.594872 118.137032,78.705620 117.563072,79.273178 
	C116.232307,80.589104 115.821030,82.834885 115.435333,85.311455 
M22.014723,131.401199 
	C21.565287,128.523849 19.981905,126.578659 17.025705,127.477905 
	C15.699137,127.881424 14.220982,129.873566 14.041942,131.299332 
	C13.899840,132.430954 15.856623,134.964157 16.487682,134.841934 
	C18.396513,134.472168 20.113697,133.112976 22.014723,131.401199 
M91.362930,122.530487 
	C94.692856,123.900009 97.136002,123.068169 97.394547,119.305931 
	C97.479378,118.071457 96.046577,116.209328 94.820839,115.574638 
	C93.849533,115.071693 91.157829,115.689117 90.940132,116.362183 
	C90.376434,118.104965 90.757538,120.153343 91.362930,122.530487 
M54.091164,159.145187 
	C57.285641,160.170792 59.648243,158.977341 59.645046,155.747513 
	C59.643639,154.321655 57.475266,152.547501 55.885693,151.643768 
	C55.237530,151.275284 52.605022,152.653000 52.472878,153.488831 
	C52.208408,155.161606 53.045006,157.008453 54.091164,159.145187 
M127.429489,167.540390 
	C128.950027,168.875778 130.307739,170.631561 132.079681,171.317947 
	C132.697754,171.557373 135.162369,169.232986 135.280182,167.942245 
	C135.398392,166.647018 133.432449,163.918716 132.748123,164.032532 
	C130.897995,164.340225 129.243561,165.824615 127.429489,167.540390 
M79.763100,91.149300 
	C76.755890,92.548370 75.799301,94.828682 77.891266,97.443985 
	C78.694427,98.448059 80.958855,99.100128 82.183121,98.716881 
	C83.367500,98.346115 85.100571,95.853355 84.794144,95.313469 
	C83.831520,93.617485 82.022202,92.402084 79.763100,91.149300 
M54.072418,171.201920 
	C56.983055,172.246643 59.346302,171.195938 59.593903,168.319305 
	C59.720226,166.851700 57.827415,164.870193 56.360149,163.771469 
	C55.765903,163.326492 52.879147,164.451904 52.764938,165.146896 
	C52.466465,166.963181 53.122177,168.936264 54.072418,171.201920 
M96.616989,158.126984 
	C98.129318,155.369080 97.931389,152.866058 94.725304,151.818756 
	C93.522331,151.425781 91.270363,152.122925 90.504189,153.107285 
	C89.729874,154.102097 89.661964,157.118408 90.231590,157.412018 
	C91.948631,158.297089 94.126259,158.288635 96.616989,158.126984 
M82.762726,134.992325 
	C85.749870,132.862015 86.093307,130.143845 83.177422,128.137711 
	C82.044479,127.358223 78.826355,127.990967 77.720589,129.119476 
	C75.237167,131.653946 77.459030,134.616501 82.762726,134.992325 
M127.500175,154.773056 
	C128.775101,156.364334 129.830276,158.298111 131.456650,159.341522 
	C131.955063,159.661301 134.791367,157.754608 135.146088,156.476059 
	C135.490433,155.234726 134.012100,152.205261 133.354813,152.211288 
	C131.455017,152.228714 129.565582,153.379196 127.500175,154.773056 
M42.035839,147.296692 
	C43.735462,146.212082 45.794525,145.400650 46.939236,143.894348 
	C47.338505,143.368973 45.789246,140.396118 44.566051,139.881729 
	C43.389008,139.386734 40.187778,140.516281 40.137245,141.121017 
	C39.976685,143.042419 40.871120,145.051971 42.035839,147.296692 
M102.289032,129.936798 
	C103.318321,131.710144 104.062492,133.819839 105.536110,135.069031 
	C106.032135,135.489517 109.123940,134.063049 109.673302,132.860977 
	C110.214188,131.677460 109.239670,128.432922 108.574043,128.326843 
	C106.689728,128.026566 104.623123,128.870193 102.289032,129.936798 
M143.625549,127.189445 
	C142.457611,128.862961 140.848221,130.419998 140.359344,132.272690 
	C140.186432,132.927933 142.748688,135.122864 144.060287,135.121170 
	C145.364395,135.119492 147.915176,132.879013 147.733932,132.253830 
	C147.196091,130.398651 145.581512,128.855637 143.625549,127.189445 
M95.508102,30.976728 
	C93.613235,31.643244 91.422173,31.956673 89.981812,33.164989 
	C89.467491,33.596455 90.302635,36.836151 91.377754,37.619892 
	C92.419548,38.379341 95.846176,37.990738 95.989311,37.479866 
	C96.516396,35.598560 96.115547,33.457272 95.508102,30.976728 
M141.534210,61.948471 
	C143.527786,61.577221 145.756195,61.598385 147.387711,60.622078 
	C147.959473,60.279934 147.631470,56.900173 146.678345,55.976212 
	C145.729401,55.056293 142.277435,54.891930 142.021317,55.417957 
	C141.170990,57.164352 141.265350,59.370720 141.534210,61.948471 
M107.822823,55.041695 
	C106.091995,55.592175 104.064629,55.778313 102.754013,56.845070 
	C102.087097,57.387890 102.202187,60.372452 102.849556,60.755238 
	C104.425705,61.687218 107.050949,62.676571 108.296906,61.965744 
	C111.161507,60.331467 110.911720,57.673721 107.822823,55.041695 
M84.994392,58.599300 
	C83.453247,57.312069 82.066231,55.575878 80.292244,54.966839 
	C79.617973,54.735352 77.081795,57.139713 77.132942,58.263599 
	C77.202339,59.788349 79.139183,62.566013 79.925980,62.449482 
	C81.718178,62.184048 83.297722,60.482853 84.994392,58.599300 
M122.085640,97.583824 
	C123.343407,93.249794 121.547707,90.068192 118.231766,91.225998 
	C116.699875,91.760872 114.691452,94.648064 114.996048,95.994247 
	C115.759544,99.368538 118.515541,99.890068 122.085640,97.583824 
M129.250275,55.283543 
	C128.866455,57.175659 128.075165,59.116581 128.293167,60.936607 
	C128.384308,61.697456 130.771912,62.886494 131.840622,62.648239 
	C133.163879,62.353245 134.998306,60.923416 135.216766,59.728722 
	C135.936691,55.791767 133.667236,54.402122 129.250275,55.283543 
M21.294348,56.537678 
	C19.331537,54.126057 16.818775,53.796593 15.004868,56.124245 
	C14.129119,57.248020 14.344938,59.908802 15.083775,61.353336 
	C15.545084,62.255260 18.704750,62.960854 19.250183,62.397015 
	C20.503284,61.101620 20.897955,58.975815 21.294348,56.537678 
M95.631279,103.664124 
	C91.254189,102.939590 88.702072,104.659889 89.680534,107.884941 
	C90.048607,109.098137 91.332169,110.527451 92.489525,110.867607 
	C93.633392,111.203796 96.127174,110.548065 96.304817,109.873466 
	C96.776260,108.083260 96.317146,106.047997 95.631279,103.664124 
M102.680008,20.345514 
	C103.324020,22.249472 103.609589,24.447344 104.802040,25.901577 
	C105.232567,26.426607 108.475014,25.644011 109.267799,24.584938 
	C110.016815,23.584341 109.800163,21.057970 109.006355,19.875044 
	C107.426956,17.521418 105.145172,17.776558 102.680008,20.345514 
M142.899414,74.585930 
	C144.609940,73.529297 146.647125,72.737129 147.841125,71.262314 
	C148.222214,70.791580 146.672592,67.779518 145.446747,67.265854 
	C144.260864,66.768936 141.068176,67.861320 141.005554,68.482361 
	C140.816025,70.361984 141.717300,72.351601 142.899414,74.585930 
M165.244644,84.060699 
	C166.810928,85.000725 168.297562,86.395531 169.976959,86.689644 
	C170.821625,86.837578 172.996292,84.801720 172.859650,84.074791 
	C172.520554,82.270752 171.548508,79.627113 170.200073,79.166397 
	C167.182953,78.135551 165.214859,79.944916 165.244644,84.060699 
M78.482887,19.111784 
	C76.208633,21.479454 75.970978,23.968275 78.917381,25.705017 
	C80.045639,26.370058 82.586189,26.259588 83.394165,25.435194 
	C84.392593,24.416471 85.086212,21.499228 84.430420,20.808521 
	C83.245827,19.560846 80.962112,19.356722 78.482887,19.111784 
M170.282059,66.899933 
	C167.063065,66.495956 164.815704,67.823166 165.277451,71.119827 
	C165.469589,72.491638 167.598389,74.012543 169.170425,74.602180 
	C170.019562,74.920670 172.576767,73.420479 172.578064,72.737427 
	C172.581528,70.888840 171.629944,69.038467 170.282059,66.899933 
M15.012868,67.911469 
	C15.157216,69.934914 14.882833,72.149384 15.671784,73.878761 
	C15.949978,74.488564 19.323795,74.533897 20.377008,73.696266 
	C21.366798,72.909073 21.881821,69.552704 21.343981,69.188126 
	C19.754219,68.110489 17.540276,67.953667 15.012868,67.911469 
M93.516205,62.879818 
	C94.826622,61.332829 96.566582,59.942814 97.219704,58.155613 
	C97.455444,57.510555 95.161842,55.100754 93.879120,54.976547 
	C92.585487,54.851284 89.836357,56.819008 89.957275,57.422440 
	C90.337051,59.317753 91.767212,61.002594 93.516205,62.879818 
M90.777100,79.924706 
	C90.855202,81.942444 90.521790,84.127197 91.235909,85.886810 
	C91.483925,86.497955 94.838493,86.705711 95.841118,85.914818 
	C96.866982,85.105591 97.531273,81.844933 96.980766,81.414841 
	C95.499496,80.257584 93.285851,80.037766 90.777100,79.924706 
M89.862823,69.078026 
	C90.253242,70.694778 90.165337,73.168121 91.151169,73.718597 
	C92.482185,74.461838 95.312599,74.390190 96.250633,73.437897 
	C97.178284,72.496132 97.276924,69.532173 96.457397,68.326591 
	C94.764214,65.835785 92.288185,66.252968 89.862823,69.078026 
M55.563843,135.345184 
	C59.033249,134.880325 60.779514,132.996475 59.299465,129.628204 
	C58.793659,128.477081 56.697140,127.300377 55.438091,127.409744 
	C54.192894,127.517891 52.020065,129.391708 52.140884,130.213669 
	C52.399490,131.973038 53.875626,133.553482 55.563843,135.345184 
M42.694279,127.198448 
	C41.559471,128.884232 39.972065,130.461685 39.528954,132.313004 
	C39.368217,132.984573 41.951588,135.123016 43.265312,135.107483 
	C44.555824,135.092209 47.060581,132.812042 46.869583,132.190964 
	C46.302433,130.346802 44.669949,128.830261 42.694279,127.198448 
M167.933640,115.344383 
	C164.512512,118.116005 164.119370,121.220818 167.183060,122.568764 
	C168.366074,123.089256 170.426392,123.160118 171.293121,122.457077 
	C172.334061,121.612732 173.366257,119.283981 172.896210,118.388367 
	C172.151016,116.968475 170.155930,116.204567 167.933640,115.344383 
M59.655636,60.095566 
	C59.708881,59.442337 60.062908,58.485458 59.763187,58.188560 
	C58.481228,56.918705 57.137577,55.277092 55.552692,54.910152 
	C54.604626,54.690655 52.343601,56.440239 52.158260,57.552322 
	C51.919182,58.986870 52.911129,61.791557 53.827778,61.999321 
	C55.485386,62.375019 57.479965,61.263988 59.655636,60.095566 
M39.433693,57.201813 
	C40.345078,59.041451 40.974747,61.157433 42.341309,62.550587 
	C42.745808,62.962959 45.961441,61.710007 46.552723,60.543118 
	C47.156902,59.350765 46.381905,56.037113 45.752037,55.909122 
	C43.877087,55.528137 41.776829,56.255913 39.433693,57.201813 
M57.724724,103.598839 
	C54.898106,102.434090 52.576168,103.177719 52.042664,106.177002 
	C51.799698,107.542923 52.906754,109.755356 54.096611,110.576393 
	C55.034809,111.223770 58.196316,110.642342 58.353336,110.061462 
	C58.860531,108.185143 58.436527,106.057098 57.724724,103.598839 
M89.567719,168.219345 
	C90.580978,171.326248 92.789833,172.690247 95.526993,170.885208 
	C96.661636,170.136963 97.080002,167.534485 96.903702,165.872894 
	C96.807785,164.968826 94.313438,163.349930 93.717964,163.653961 
	C92.076843,164.491821 90.866341,166.173157 89.567719,168.219345 
M107.924004,171.226212 
	C108.540939,169.416199 109.786720,167.508896 109.527687,165.834381 
	C109.383347,164.901276 106.364357,163.435562 105.306244,163.861771 
	C103.898376,164.428879 103.138794,166.605392 102.100708,168.090500 
	C103.805290,169.223358 105.509865,170.356201 107.924004,171.226212 
M59.260368,20.374855 
	C57.279247,19.985971 55.230492,19.160494 53.354633,19.451090 
	C52.720051,19.549395 51.780102,22.820086 52.335781,24.005117 
	C52.886475,25.179520 55.953960,26.535391 56.499863,26.086721 
	C57.947227,24.897141 58.628807,22.775829 59.260368,20.374855 
M97.267448,23.814610 
	C97.099297,19.255259 94.340454,16.776609 91.690865,19.011726 
	C90.482513,20.031057 89.560616,23.148586 90.236694,24.298944 
	C91.961723,27.234127 94.675438,27.290150 97.267448,23.814610 
M43.494038,74.808937 
	C44.713978,73.681351 46.920387,72.546761 46.912449,71.427902 
	C46.901718,69.916527 45.439331,67.535759 44.134872,67.165329 
	C42.877769,66.808357 40.267509,68.137245 39.598003,69.425255 
	C38.162025,72.187798 39.934544,73.986359 43.494038,74.808937 
M80.563721,66.780510 
	C76.477898,68.894997 75.452721,72.502319 78.707664,73.862099 
	C80.251434,74.507019 83.683861,73.785423 84.415848,72.570984 
	C86.003082,69.937561 84.692635,67.528748 80.563721,66.780510 
M19.147907,123.003212 
	C19.940926,121.164627 21.195116,119.347496 21.282185,117.476074 
	C21.313566,116.801529 18.375492,115.205139 17.094973,115.473366 
	C15.810856,115.742332 13.753815,118.462311 14.042644,118.973076 
	C14.990965,120.650093 16.850830,121.811653 19.147907,123.003212 
M51.942284,96.201340 
	C53.788136,97.035706 55.598637,98.308037 57.499451,98.461464 
	C58.144783,98.513550 59.825134,95.575409 59.562546,94.308327 
	C59.294018,93.012573 56.651413,90.929779 56.048920,91.226158 
	C54.356033,92.058914 53.178429,93.939171 51.942284,96.201340 
M81.362564,115.148216 
	C79.865639,116.538391 78.047318,117.744957 77.080238,119.437820 
	C76.812531,119.906456 78.920685,122.595619 80.220169,122.854744 
	C81.533379,123.116592 84.539978,121.431366 84.468239,120.940567 
	C84.184097,118.996292 82.984482,117.185799 81.362564,115.148216 
M105.677765,123.171295 
	C107.205086,121.826881 109.082153,120.684624 110.047127,119.015167 
	C110.337540,118.512749 108.266434,115.762939 106.956902,115.468910 
	C105.674561,115.180977 102.674637,116.800674 102.717766,117.424927 
	C102.848640,119.319511 104.087357,121.137566 105.677765,123.171295 
M84.976685,106.714790 
	C83.306648,105.541710 81.753403,103.957550 79.899696,103.430901 
	C79.296211,103.259438 77.088882,105.861420 77.109344,107.171570 
	C77.129890,108.486710 79.351883,111.014442 80.015327,110.833504 
	C81.841606,110.335472 83.356949,108.697235 84.976685,106.714790 
M140.007065,118.730362 
	C140.165833,119.519669 140.106964,120.455063 140.521545,121.072639 
	C142.197495,123.569191 144.740906,124.182106 146.642014,121.980484 
	C147.596283,120.875336 147.682281,117.598923 146.755417,116.567543 
	C144.340195,113.879959 141.829575,114.867416 140.007065,118.730362 
M21.486443,108.963280 
	C20.733412,107.083031 20.316399,104.900581 19.044807,103.486702 
	C18.600702,102.992889 15.362672,103.952347 14.655153,105.053917 
	C13.952618,106.147736 14.433379,109.472633 15.087487,109.684799 
	C16.890839,110.269730 19.056332,109.738174 21.486443,108.963280 
M173.198425,95.414391 
	C171.800659,93.937462 170.606293,92.047615 168.896027,91.205124 
	C168.288467,90.905838 165.618790,92.993942 165.365417,94.282272 
	C165.113968,95.560898 166.784821,98.478340 167.496246,98.441299 
	C169.379898,98.343239 171.200623,97.036194 173.198425,95.414391 
M41.228355,98.561462 
	C43.126007,97.880203 45.293495,97.530106 46.767593,96.329018 
	C47.250778,95.935326 46.390091,92.684265 45.310257,91.923927 
	C44.254566,91.180595 40.898930,91.548279 40.712799,92.125160 
	C40.129177,93.934036 40.563744,96.071419 41.228355,98.561462 
M16.734940,91.152077 
	C13.954651,92.353073 12.823488,94.505447 14.577840,96.996162 
	C15.380953,98.136368 17.702187,98.949120 19.108963,98.688873 
	C20.245764,98.478584 22.094736,95.824432 21.800608,95.320183 
	C20.809269,93.620651 19.002733,92.396629 16.734940,91.152077 
M173.061096,108.270668 
	C171.965073,106.550072 171.143036,104.472816 169.622528,103.304832 
	C169.099533,102.903091 166.073334,104.464134 165.578156,105.689293 
	C165.089966,106.897179 166.181641,110.077744 166.889725,110.176651 
	C168.767944,110.439003 170.813339,109.504646 173.061096,108.270668 
M82.884621,86.467369 
	C83.489883,84.776909 84.681992,83.013763 84.484924,81.422676 
	C84.362587,80.435036 82.180130,79.148888 80.836388,79.037941 
	C79.721878,78.945915 78.040230,80.107086 77.383110,81.184639 
	C75.676086,83.983841 77.730659,86.273132 82.884621,86.467369 
M141.470200,79.782585 
	C141.082840,81.291298 139.903152,83.383644 140.487335,84.176720 
	C141.447876,85.480759 143.820908,86.869850 145.097061,86.498795 
	C146.368820,86.129021 147.940857,83.519875 147.758591,82.101021 
	C147.376373,79.125862 145.023071,78.200142 141.470200,79.782585 
M52.184517,68.931862 
	C52.942307,70.792603 53.346916,72.988838 54.635509,74.345352 
	C55.135693,74.871902 58.304665,73.950020 59.029243,72.866394 
	C59.732567,71.814560 59.264515,68.520844 58.602886,68.296127 
	C56.818127,67.689941 54.656212,68.194191 52.184517,68.931862 
M53.237072,122.265152 
	C56.312477,124.013214 58.948017,123.375603 59.579735,119.911606 
	C59.821381,118.586563 57.920399,115.982246 56.438072,115.412834 
	C53.161732,114.154282 51.374023,117.281273 53.237072,122.265152 
M104.252800,74.259789 
	C106.101379,73.727844 108.147804,73.500847 109.691643,72.499207 
	C110.234917,72.146729 110.003166,69.043144 109.329842,68.683037 
	C107.729202,67.826988 105.173233,66.993401 103.871223,67.715569 
	C101.282562,69.151382 101.413513,71.707314 104.252800,74.259789 
M57.732635,86.406914 
	C58.327908,84.728561 59.797832,82.670013 59.278824,81.476028 
	C58.731434,80.216751 56.199684,79.053360 54.698120,79.230667 
	C53.599258,79.360420 51.985279,81.718170 51.971687,83.096367 
	C51.942074,86.099419 54.079548,87.254669 57.732635,86.406914 
M131.493835,26.401249 
	C134.621246,25.841997 136.498444,24.111725 135.049896,20.967215 
	C134.470840,19.710167 132.282104,18.527800 130.842957,18.547422 
	C129.717239,18.562773 127.559677,20.699598 127.725304,21.515091 
	C128.075714,23.240435 129.645172,24.718199 131.493835,26.401249 
M46.742275,81.010559 
	C44.784103,80.541656 42.783981,79.653923 40.891750,79.843430 
	C40.274910,79.905212 39.192848,83.082161 39.682636,84.277473 
	C40.184872,85.503151 43.180603,87.070694 43.635883,86.701515 
	C45.122166,85.496323 45.947517,83.476051 46.742275,81.010559 
M16.000330,79.308334 
	C15.545557,81.269096 14.639053,83.287544 14.878134,85.159698 
	C14.963171,85.825592 18.129190,86.883591 19.343353,86.398224 
	C20.551004,85.915451 22.090097,82.898735 21.708500,82.425888 
	C20.500713,80.929268 18.462509,80.102806 16.000330,79.308334 
M140.495926,105.176132 
	C139.376938,107.998283 140.208374,110.367462 143.094376,110.873642 
	C144.487091,111.117912 146.718140,109.735947 147.628006,108.432869 
	C148.201828,107.611084 147.367126,104.549011 146.578156,104.292168 
	C144.898026,103.745201 142.835922,104.371590 140.495926,105.176132 
M47.004940,117.928185 
	C45.140175,117.140808 43.299809,115.914490 41.397156,115.808723 
	C40.748093,115.772629 39.139038,118.740364 39.431900,119.993690 
	C39.731293,121.275002 42.398834,123.276436 43.024117,122.962128 
	C44.696857,122.121292 45.830662,120.208290 47.004940,117.928185 
M108.730438,110.306450 
	C109.007370,108.534721 110.071785,106.246803 109.342690,105.134521 
	C108.593704,103.991890 105.872368,103.285965 104.431068,103.733009 
	C103.341881,104.070854 102.098709,106.677666 102.350075,108.004486 
	C102.897247,110.892670 105.202293,111.792511 108.730438,110.306450 
M47.210697,107.495781 
	C45.793083,106.020325 44.568523,104.166763 42.846497,103.287498 
	C42.291386,103.004059 39.617634,105.140785 39.388409,106.432220 
	C39.156937,107.736305 40.845627,110.652908 41.534904,110.604637 
	C43.423466,110.472343 45.228870,109.152901 47.210697,107.495781 
M148.064636,95.435745 
	C147.669540,91.917671 145.816269,90.086662 142.368271,91.541725 
	C141.234634,92.020126 140.206421,94.135094 140.213089,95.496391 
	C140.218582,96.614983 141.981018,98.747169 142.695862,98.639801 
	C144.513885,98.366745 146.181198,97.090302 148.064636,95.435745 
M109.239952,97.607086 
	C108.923035,95.632927 109.002846,93.433495 108.077873,91.804619 
	C107.746094,91.220345 104.435692,91.435844 103.498619,92.338676 
	C102.568619,93.234695 102.284370,96.588074 102.817375,96.884407 
	C104.497841,97.818695 106.694656,97.824219 109.239952,97.607086 
M107.972260,86.477348 
	C108.565254,84.669762 109.777794,82.760948 109.505569,81.094719 
	C109.355972,80.179024 106.332092,78.767334 105.275726,79.203979 
	C103.880325,79.780762 103.143394,81.950539 102.123405,83.435555 
	C103.832016,84.553474 105.540619,85.671402 107.972260,86.477348 
z"/>
<path fill="#000000" opacity="1.000000" stroke="none" 
	d="
M11.517044,1.000000 
	C10.706770,2.453065 9.420136,3.912067 8.118830,5.357862 
	C5.942406,7.775939 3.756613,10.185582 1.287382,12.299388 
	C1.000000,8.412791 1.000000,4.825583 1.000000,1.000000 
	C4.342551,1.000000 7.688319,1.000000 11.517044,1.000000 
z"/>
<path fill="#13171A" opacity="1.000000" stroke="none" 
	d="
M185.500000,184.000000 
	C186.145187,182.460037 187.290375,180.920074 188.717773,179.690063 
	C188.911514,182.016968 190.016388,184.928955 185.500000,184.000000 
z"/>
<path fill="#393B3E" opacity="1.000000" stroke="none" 
	d="
M30.900124,147.495834 
	C29.163260,145.993729 27.445187,144.604034 26.593708,142.804321 
	C26.336870,142.261459 28.382263,139.777451 29.559380,139.625443 
	C31.004652,139.438812 33.322117,140.338058 34.067974,141.521057 
	C35.923069,144.463409 34.315575,146.467010 30.900124,147.495834 
z"/>
<path fill="#3C3F42" opacity="1.000000" stroke="none" 
	d="
M72.472595,46.225357 
	C71.005386,47.973339 69.673447,49.803436 67.890640,50.535458 
	C67.243141,50.801319 64.731087,48.577213 64.509552,47.249046 
	C64.290627,45.936531 65.525764,43.640858 66.765869,42.976654 
	C69.520691,41.501156 71.408890,43.174999 72.472595,46.225357 
z"/>
<path fill="#3A3D40" opacity="1.000000" stroke="none" 
	d="
M156.156143,127.190826 
	C157.917526,128.658768 159.658615,129.997543 160.511261,131.764923 
	C160.785309,132.332977 158.838989,134.832611 157.687042,135.009872 
	C156.254654,135.230316 153.910736,134.399734 153.165115,133.245132 
	C151.344131,130.425339 152.740921,128.299301 156.156143,127.190826 
z"/>
<path fill="#383B3E" opacity="1.000000" stroke="none" 
	d="
M33.414803,43.748226 
	C33.447754,45.998531 33.685448,48.301548 32.731339,49.887646 
	C32.344959,50.529961 28.910721,50.172462 27.703663,49.212921 
	C26.804317,48.497997 26.648348,44.945549 27.220348,44.640106 
	C28.912035,43.736786 31.129002,43.817169 33.414803,43.748226 
z"/>
<path fill="#393B3E" opacity="1.000000" stroke="none" 
	d="
M122.500412,44.778557 
	C123.447693,48.040504 122.406067,50.442997 119.446716,50.536556 
	C117.897194,50.585545 115.565178,48.754349 114.947144,47.223118 
	C114.546097,46.229504 116.282890,43.558319 117.656151,42.922569 
	C118.743179,42.419334 120.734283,43.868965 122.500412,44.778557 
z"/>
<path fill="#34373B" opacity="1.000000" stroke="none" 
	d="
M27.129238,129.032684 
	C29.511070,126.534538 31.898451,126.539902 33.693764,128.852448 
	C34.478909,129.863785 34.736702,132.504135 34.045216,133.169739 
	C32.870853,134.300110 29.861135,135.412064 29.221384,134.815994 
	C27.893875,133.579102 27.614365,131.217422 27.129238,129.032684 
z"/>
<path fill="#383B3E" opacity="1.000000" stroke="none" 
	d="
M154.172394,140.072784 
	C157.506012,138.581223 159.924911,139.532455 160.427460,142.662964 
	C160.646973,144.030411 159.090775,146.621918 157.819351,147.029221 
	C156.512054,147.447968 153.971588,146.298523 153.099182,145.048065 
	C152.439880,144.103043 153.556549,141.919006 154.172394,140.072784 
z"/>
<path fill="#3A3D40" opacity="1.000000" stroke="none" 
	d="
M114.755432,144.449478 
	C114.468521,141.029892 116.109024,139.101990 118.982933,139.493515 
	C120.433800,139.691177 122.169975,141.634369 122.721008,143.167816 
	C123.055534,144.098755 121.283073,146.917160 120.613945,146.865280 
	C118.649895,146.712997 116.764282,145.549225 114.755432,144.449478 
z"/>
<path fill="#36383C" opacity="1.000000" stroke="none" 
	d="
M72.347389,156.540909 
	C70.900887,159.608292 68.612495,160.479034 66.236053,158.783875 
	C65.120079,157.987823 64.250694,155.529434 64.660934,154.281952 
	C65.068375,153.042999 67.842880,151.301041 68.488907,151.673096 
	C70.131180,152.618881 71.163704,154.623428 72.347389,156.540909 
z"/>
<path fill="#383B3E" opacity="1.000000" stroke="none" 
	d="
M64.365166,59.686905 
	C65.577995,57.788128 66.640366,55.795826 68.293762,54.922573 
	C68.972214,54.564247 71.888863,56.474972 72.060478,57.613770 
	C72.285477,59.106831 70.804932,62.225765 70.053680,62.227093 
	C68.187988,62.230392 66.319862,60.861683 64.365166,59.686905 
z"/>
<path fill="#3C3F42" opacity="1.000000" stroke="none" 
	d="
M68.033005,139.308304 
	C71.772644,139.979721 73.601730,142.043335 71.833115,145.189987 
	C71.142685,146.418365 68.350777,146.888107 66.528702,146.860718 
	C65.743172,146.848907 64.134392,144.423553 64.405708,143.577820 
	C64.918686,141.978775 66.520409,140.729019 68.033005,139.308304 
z"/>
<path fill="#333639" opacity="1.000000" stroke="none" 
	d="
M72.303574,166.532120 
	C71.146935,168.459000 70.147469,170.477203 68.523186,171.428146 
	C67.884193,171.802246 65.093948,170.050156 64.663254,168.793411 
	C64.237900,167.552231 65.092018,165.061813 66.203690,164.272079 
	C68.577217,162.585876 70.863487,163.473434 72.303574,166.532120 
z"/>
<path fill="#393B3E" opacity="1.000000" stroke="none" 
	d="
M153.185577,48.920033 
	C151.724503,45.781597 152.675751,43.428837 155.471619,42.828430 
	C156.874344,42.527195 159.534973,43.841267 160.104111,45.108593 
	C160.659348,46.344963 159.759171,49.260124 158.606125,49.952023 
	C157.437500,50.653263 155.177216,49.535252 153.185577,48.920033 
z"/>
<path fill="#373A3D" opacity="1.000000" stroke="none" 
	d="
M120.409370,159.231964 
	C118.317230,158.504593 116.294930,157.933777 114.953316,156.651031 
	C114.430222,156.150894 115.002495,153.516769 115.861710,152.809982 
	C116.930313,151.930969 118.954147,151.486923 120.315155,151.834656 
	C123.560905,152.663925 123.663353,155.823929 120.409370,159.231964 
z"/>
<path fill="#383B3E" opacity="1.000000" stroke="none" 
	d="
M152.600250,35.527615 
	C153.759338,33.573524 154.779022,31.553747 156.420090,30.556606 
	C157.019501,30.192387 159.680664,31.979502 160.310974,33.303993 
	C160.808060,34.348576 160.098724,36.753403 159.111832,37.564819 
	C156.554916,39.667110 154.242752,38.730186 152.600250,35.527615 
z"/>
<path fill="#36393C" opacity="1.000000" stroke="none" 
	d="
M153.267944,56.284241 
	C155.413696,55.888741 157.450119,55.376934 159.229843,55.843796 
	C159.967438,56.037292 160.920883,58.943733 160.441391,59.536247 
	C159.293304,60.954956 157.197113,62.771896 155.765579,62.556274 
	C152.661911,62.088799 151.659790,59.618912 153.267944,56.284241 
z"/>
<path fill="#383B3E" opacity="1.000000" stroke="none" 
	d="
M71.723747,32.224113 
	C71.280037,34.422848 71.028694,36.717594 69.768982,38.079929 
	C69.259430,38.630993 65.974953,37.610664 65.024803,36.437531 
	C64.296463,35.538258 64.866043,32.064426 65.528976,31.854622 
	C67.332703,31.283777 69.492310,31.837416 71.723747,32.224113 
z"/>
<path fill="#393B3E" opacity="1.000000" stroke="none" 
	d="
M72.028168,68.949753 
	C71.285316,71.053520 70.725204,73.252434 69.314697,74.448471 
	C68.698639,74.970856 65.647362,73.855164 64.971085,72.724365 
	C64.300003,71.602242 65.055367,68.152618 65.476990,68.100838 
	C67.553261,67.845932 69.726547,68.381256 72.028168,68.949753 
z"/>
<path fill="#34373A" opacity="1.000000" stroke="none" 
	d="
M29.456413,62.690254 
	C28.281919,60.820721 26.973675,59.098110 26.863884,57.302231 
	C26.815886,56.517090 29.416897,54.690990 30.463779,54.922897 
	C32.054077,55.275188 34.290787,56.820316 34.561932,58.192825 
	C35.199802,61.421661 33.040966,62.939537 29.456413,62.690254 
z"/>
<path fill="#3C3F42" opacity="1.000000" stroke="none" 
	d="
M64.851357,80.756378 
	C66.946190,80.147408 68.975296,79.372574 70.696548,79.809776 
	C71.551567,80.026955 72.511559,82.641823 72.199059,83.856964 
	C71.884178,85.081413 70.088547,86.715233 68.876518,86.771744 
	C65.126312,86.946617 63.547417,84.859726 64.851357,80.756378 
z"/>
<path fill="#303336" opacity="1.000000" stroke="none" 
	d="
M32.273567,151.853058 
	C33.068947,153.950119 33.974903,155.968231 33.737728,157.841599 
	C33.655003,158.494995 30.319447,159.609604 29.244953,159.042969 
	C27.907799,158.337814 27.373722,156.109833 26.492840,154.539490 
	C28.306816,153.598740 30.120794,152.657974 32.273567,151.853058 
z"/>
<path fill="#34373A" opacity="1.000000" stroke="none" 
	d="
M127.579239,45.496300 
	C129.277481,44.335152 130.888412,42.890404 132.476288,42.915337 
	C133.506165,42.931503 135.059128,44.977646 135.338882,46.329247 
	C135.565765,47.425510 134.560349,49.243721 133.548874,50.037914 
	C130.978210,52.056324 128.414963,50.194641 127.579239,45.496300 
z"/>
<path fill="#323538" opacity="1.000000" stroke="none" 
	d="
M114.585304,22.110050 
	C116.360306,20.663807 118.002609,19.062252 119.881081,18.706003 
	C120.651421,18.559908 122.734077,21.092827 122.748817,22.423359 
	C122.762894,23.694921 121.088654,25.715488 119.763741,26.119877 
	C116.986839,26.967436 115.021561,25.493673 114.585304,22.110050 
z"/>
<path fill="#36393C" opacity="1.000000" stroke="none" 
	d="
M127.746857,129.603577 
	C130.166138,126.460289 132.860565,126.175613 134.678741,129.264740 
	C135.380585,130.457184 134.591049,133.583420 133.416214,134.609543 
	C130.790115,136.903244 127.960640,134.514572 127.746857,129.603577 
z"/>
<path fill="#3A3D40" opacity="1.000000" stroke="none" 
	d="
M30.872833,30.335609 
	C32.366730,32.123508 33.876678,33.753902 34.419060,35.659668 
	C34.594425,36.275860 32.213676,38.437538 31.031149,38.414364 
	C29.564722,38.385632 27.394102,37.146046 26.823572,35.856270 
	C25.395786,32.628517 27.559618,31.023382 30.872833,30.335609 
z"/>
<path fill="#393B3E" opacity="1.000000" stroke="none" 
	d="
M72.351723,130.374695 
	C71.410767,132.215073 70.643753,134.115952 69.235580,135.045456 
	C68.480431,135.543884 65.628387,134.612625 65.457268,133.906281 
	C65.022934,132.113480 64.823219,129.304047 65.869324,128.306107 
	C68.273003,126.013130 70.744987,127.089455 72.351723,130.374695 
z"/>
<path fill="#36383C" opacity="1.000000" stroke="none" 
	d="
M122.767258,132.494629 
	C120.733910,133.505386 118.804153,134.592911 116.869675,134.601349 
	C116.133980,134.604553 114.688004,132.041199 114.841156,130.805679 
	C114.996529,129.552216 116.566147,127.758148 117.796745,127.490646 
	C121.230980,126.744133 123.031456,128.559937 122.767258,132.494629 
z"/>
<path fill="#313437" opacity="1.000000" stroke="none" 
	d="
M117.591492,171.398865 
	C116.530334,169.387589 115.401535,167.504288 115.330811,165.582062 
	C115.309303,164.997330 118.535133,163.443756 119.681160,163.882294 
	C121.086464,164.420044 121.869904,166.582870 122.922195,168.043152 
	C121.258247,169.199402 119.594299,170.355637 117.591492,171.398865 
z"/>
<path fill="#36383C" opacity="1.000000" stroke="none" 
	d="
M115.347870,32.227104 
	C117.600967,31.830490 119.778824,31.262394 121.610069,31.824167 
	C122.284248,32.030983 122.900795,35.517910 122.181221,36.411072 
	C121.232597,37.588524 117.998634,38.630974 117.419647,38.053787 
	C116.112686,36.750889 115.832901,34.417614 115.347870,32.227104 
z"/>
<path fill="#34373B" opacity="1.000000" stroke="none" 
	d="
M30.176029,86.924652 
	C28.681219,85.300949 27.082443,83.842941 26.659187,82.099541 
	C26.471674,81.327179 28.603580,79.180641 29.788176,79.093536 
	C31.237398,78.986961 33.548557,80.002045 34.166382,81.208443 
	C35.908108,84.609421 33.840805,86.339584 30.176029,86.924652 
z"/>
<path fill="#313437" opacity="1.000000" stroke="none" 
	d="
M26.679039,105.601204 
	C28.771330,102.603477 31.386116,102.034737 33.428959,104.501968 
	C34.352795,105.617744 33.532536,108.177597 33.503525,110.082314 
	C31.569767,110.048172 29.494669,110.412125 27.766613,109.798599 
	C26.994576,109.524490 26.919622,107.286980 26.679039,105.601204 
z"/>
<path fill="#3A3D40" opacity="1.000000" stroke="none" 
	d="
M156.170441,99.064667 
	C154.678528,97.441307 153.087402,95.975494 152.679703,94.232811 
	C152.494980,93.443199 154.533890,91.438164 155.793152,91.201035 
	C157.058411,90.962769 159.289124,91.844933 159.908173,92.920311 
	C161.897400,96.375809 160.252487,98.432976 156.170441,99.064667 
z"/>
<path fill="#3C3F42" opacity="1.000000" stroke="none" 
	d="
M140.012085,143.091644 
	C141.624237,141.599152 143.104385,139.870346 144.802597,139.619873 
	C145.692551,139.488617 147.608002,141.837936 147.859528,143.276917 
	C148.057907,144.411682 146.711624,146.550018 145.542068,147.049133 
	C142.375793,148.400314 140.595749,146.602570 140.012085,143.091644 
z"/>
<path fill="#383B3E" opacity="1.000000" stroke="none" 
	d="
M135.506744,95.754097 
	C133.730621,97.051727 132.090485,98.494698 130.309769,98.696411 
	C129.470184,98.791527 127.800835,96.609200 127.548920,95.263824 
	C127.343666,94.167557 128.380219,92.116096 129.400925,91.643700 
	C132.965851,89.993820 135.051086,91.606972 135.506744,95.754097 
z"/>
<path fill="#313437" opacity="1.000000" stroke="none" 
	d="
M91.322556,134.604065 
	C90.949562,132.383804 90.470398,130.251709 90.997658,128.407333 
	C91.159950,127.839630 94.759010,127.333580 95.557343,128.091599 
	C96.662018,129.140488 97.509514,132.111664 96.828804,132.990112 
	C95.882790,134.210953 93.418304,134.255142 91.322556,134.604065 
z"/>
<path fill="#36393C" opacity="1.000000" stroke="none" 
	d="
M134.496521,68.207405 
	C134.276184,70.431297 134.203537,72.664520 133.121384,74.174057 
	C132.698761,74.763603 129.387787,74.266983 128.523041,73.277214 
	C127.664787,72.294861 127.699593,68.863609 128.267014,68.614883 
	C130.021545,67.845795 132.216553,68.081673 134.496521,68.207405 
z"/>
<path fill="#3C3F42" opacity="1.000000" stroke="none" 
	d="
M83.715927,140.416489 
	C83.910446,142.604980 84.205254,144.662491 83.575912,146.381683 
	C83.326866,147.062012 80.350525,147.673859 79.790184,147.122818 
	C78.499359,145.853439 76.928787,143.612518 77.268715,142.197495 
	C78.018974,139.074387 80.597565,138.513046 83.715927,140.416489 
z"/>
<path fill="#393B3E" opacity="1.000000" stroke="none" 
	d="
M154.681915,79.274399 
	C157.991180,78.323982 160.251251,79.386299 160.514648,82.384621 
	C160.633911,83.742126 159.194550,86.043091 157.950546,86.489235 
	C156.681000,86.944534 153.673798,85.972763 153.405365,85.050209 
	C152.928482,83.411285 153.945221,81.337761 154.681915,79.274399 
z"/>
<path fill="#36393C" opacity="1.000000" stroke="none" 
	d="
M155.400146,123.000137 
	C154.350784,120.974388 153.258881,119.061203 153.243088,117.139175 
	C153.238205,116.545959 156.397568,115.154808 157.686630,115.539894 
	C158.976990,115.925377 160.844772,118.892708 160.539017,119.305374 
	C159.369308,120.884010 157.426376,121.889717 155.400146,123.000137 
z"/>
<path fill="#3C3F42" opacity="1.000000" stroke="none" 
	d="
M70.923111,98.234100 
	C67.937828,99.733635 65.447891,99.256264 64.657951,96.394501 
	C64.274315,95.004677 65.345085,92.253853 66.532822,91.653694 
	C67.775673,91.025696 70.665062,91.694603 71.508209,92.804413 
	C72.306633,93.855339 71.385208,96.212898 70.923111,98.234100 
z"/>
<path fill="#313437" opacity="1.000000" stroke="none" 
	d="
M26.448021,118.341599 
	C28.405619,117.162300 30.266222,115.810860 32.156181,115.768478 
	C32.996929,115.749626 34.724060,118.491280 34.537975,119.758026 
	C34.350739,121.032646 31.700163,123.209381 31.153164,122.936653 
	C29.310713,122.018036 27.924011,120.185333 26.448021,118.341599 
z"/>
<path fill="#383B3E" opacity="1.000000" stroke="none" 
	d="
M26.313675,95.003937 
	C28.003860,93.434914 29.574871,91.710625 31.440668,91.288116 
	C32.262691,91.101974 34.502407,93.502739 34.598289,94.836823 
	C34.690582,96.121010 32.463226,98.836670 31.923180,98.676117 
	C29.905085,98.076126 28.161125,96.554085 26.313675,95.003937 
z"/>
<path fill="#383B3E" opacity="1.000000" stroke="none" 
	d="
M135.477142,83.680954 
	C133.836197,84.986870 132.332504,86.530937 130.713974,86.662491 
	C129.718216,86.743423 128.004929,84.822990 127.624573,83.508659 
	C127.315231,82.439735 128.163345,80.557243 129.103668,79.698868 
	C131.509995,77.502266 134.192535,79.092964 135.477142,83.680954 
z"/>
<path fill="#34373B" opacity="1.000000" stroke="none" 
	d="
M158.418060,110.807480 
	C156.235611,110.043480 154.082825,109.424019 152.756912,108.022339 
	C152.293243,107.532173 153.474213,104.409264 154.617599,103.775185 
	C155.789444,103.125343 158.316162,103.483261 159.398743,104.402481 
	C161.757233,106.405106 161.001938,108.751472 158.418060,110.807480 
z"/>
<path fill="#333639" opacity="1.000000" stroke="none" 
	d="
M117.522720,110.977089 
	C116.477287,108.940758 115.803528,107.016556 115.129768,105.092361 
	C116.855576,104.518799 118.749474,103.241348 120.252586,103.600296 
	C121.400513,103.874420 123.104172,106.992104 122.730553,107.500793 
	C121.595032,109.046913 119.571892,109.941139 117.522720,110.977089 
z"/>
<path fill="#3A3D40" opacity="1.000000" stroke="none" 
	d="
M76.883881,34.876228 
	C78.226959,33.109604 79.431877,31.375847 81.089935,30.521654 
	C81.714775,30.199749 84.277969,31.805017 84.391312,32.724758 
	C84.598679,34.407497 84.202827,37.044254 83.056938,37.838959 
	C80.298943,39.751724 78.053070,38.345028 76.883881,34.876228 
z"/>
<path fill="#3F4144" opacity="1.000000" stroke="none" 
	d="
M77.672623,49.075432 
	C77.878456,46.887177 77.920738,44.724266 78.951279,43.254112 
	C79.428001,42.574039 82.249031,42.696815 83.247292,43.455486 
	C84.277649,44.238552 85.136047,46.476440 84.757736,47.657692 
	C83.548958,51.431938 80.951019,51.771019 77.672623,49.075432 
z"/>
<path fill="#333639" opacity="1.000000" stroke="none" 
	d="
M89.527924,46.215950 
	C90.729050,42.967831 92.690590,41.248035 95.569710,43.368168 
	C96.673882,44.181252 97.232491,46.491222 97.063820,48.010784 
	C96.951561,49.022190 94.559952,50.815044 94.141418,50.577717 
	C92.393768,49.586697 91.006622,47.959930 89.527924,46.215950 
z"/>
<path fill="#373A3D" opacity="1.000000" stroke="none" 
	d="
M102.457718,48.355705 
	C103.412079,46.167088 104.531181,44.318089 105.650284,42.469086 
	C107.143272,43.516365 109.306061,44.279819 109.909546,45.704021 
	C110.362495,46.772923 109.045647,49.786705 108.099800,49.989429 
	C106.442596,50.344612 104.465530,49.207352 102.457718,48.355705 
z"/>
<path fill="#3A3D40" opacity="1.000000" stroke="none" 
	d="
M146.772278,49.649788 
	C144.514908,49.491035 142.277176,49.451008 140.675522,48.421455 
	C140.099426,48.051136 140.505310,44.735603 141.468933,43.798294 
	C142.377762,42.914261 145.785904,42.830349 146.042389,43.369938 
	C146.880325,45.132774 146.781616,47.340828 146.772278,49.649788 
z"/>
<path fill="#3A3D40" opacity="1.000000" stroke="none" 
	d="
M147.197876,32.057388 
	C146.853699,34.318333 146.578583,36.482906 145.495483,38.109470 
	C145.199463,38.554016 141.825455,37.866070 141.049576,36.819176 
	C140.254639,35.746571 140.299774,33.207512 141.065475,32.000881 
	C142.579910,29.614326 144.900070,29.796003 147.197876,32.057388 
z"/>
<path fill="#383B3E" opacity="1.000000" stroke="none" 
	d="
M144.023590,159.603638 
	C140.557251,158.693542 138.880264,156.581833 140.634308,153.730545 
	C141.389404,152.503082 144.128693,152.077438 145.945190,152.123856 
	C146.692078,152.142929 148.234070,154.695389 147.916763,155.517334 
	C147.306686,157.097610 145.628860,158.265686 144.023590,159.603638 
z"/>
<path fill="#313437" opacity="1.000000" stroke="none" 
	d="
M154.847015,159.114594 
	C154.029327,157.095901 153.063446,155.166214 153.275070,153.375717 
	C153.364395,152.620087 156.338715,151.309036 157.284180,151.758774 
	C158.742691,152.452560 160.519806,154.460403 160.493881,155.880432 
	C160.438904,158.891602 158.175217,160.033463 154.847015,159.114594 
z"/>
<path fill="#383B3E" opacity="1.000000" stroke="none" 
	d="
M83.753670,158.562103 
	C81.469101,158.415863 79.264053,158.357468 77.551308,157.409546 
	C76.964157,157.084610 77.030388,153.961731 77.837959,153.143692 
	C78.845718,152.122894 81.214325,151.409378 82.489250,151.894196 
	C85.586014,153.071793 85.697769,155.626984 83.753670,158.562103 
z"/>
<path fill="#373A3D" opacity="1.000000" stroke="none" 
	d="
M166.945404,62.146202 
	C166.521805,59.878975 166.003189,57.696465 166.557083,55.832699 
	C166.736755,55.228149 170.181793,54.765369 171.298752,55.502399 
	C172.403717,56.231514 173.326126,59.521610 172.800491,59.996311 
	C171.393555,61.266937 169.167603,61.630695 166.945404,62.146202 
z"/>
<path fill="#323538" opacity="1.000000" stroke="none" 
	d="
M64.243378,22.056850 
	C65.987762,20.624161 67.645706,18.934208 69.453865,18.754345 
	C70.313049,18.668880 72.181190,21.438665 72.231514,22.960001 
	C72.267685,24.053583 69.663239,26.376608 68.915901,26.125986 
	C67.135963,25.529076 65.758583,23.731760 64.243378,22.056850 
z"/>
<path fill="#36393C" opacity="1.000000" stroke="none" 
	d="
M41.020592,31.054100 
	C43.197403,31.613016 45.407925,32.037140 46.782673,33.341881 
	C47.301350,33.834141 46.332649,37.040043 45.225197,37.770386 
	C44.159977,38.472870 40.800209,37.938911 40.615814,37.311405 
	C40.073872,35.467125 40.608604,33.306469 41.020592,31.054100 
z"/>
<path fill="#36383C" opacity="1.000000" stroke="none" 
	d="
M82.460953,171.367401 
	C80.410164,170.586792 78.419182,169.960251 77.164139,168.636154 
	C76.638992,168.082108 77.248665,165.520126 78.111763,164.821274 
	C79.163055,163.970062 81.190514,163.560333 82.503296,163.948563 
	C85.645462,164.877701 85.686729,168.014267 82.460953,171.367401 
z"/>
<path fill="#36383C" opacity="1.000000" stroke="none" 
	d="
M52.255699,36.343010 
	C52.986191,34.166813 53.639957,32.089088 54.983238,30.659048 
	C55.331516,30.288271 58.539272,31.582468 59.153431,32.772541 
	C59.755344,33.938877 58.967690,37.234081 58.368294,37.346481 
	C56.498089,37.697174 54.428345,36.983757 52.255699,36.343010 
z"/>
<path fill="#333639" opacity="1.000000" stroke="none" 
	d="
M46.386471,157.993286 
	C44.116146,158.190765 41.914642,158.523468 40.168983,157.782394 
	C39.540653,157.515640 39.360500,154.162933 40.157742,153.136902 
	C40.962132,152.101669 44.292648,151.440186 44.663185,151.953293 
	C45.798374,153.525253 46.043880,155.739700 46.386471,157.993286 
z"/>
<path fill="#34373B" opacity="1.000000" stroke="none" 
	d="
M103.424179,37.472801 
	C103.402359,35.185463 103.309013,33.007477 104.107475,31.230122 
	C104.330383,30.733927 107.732773,30.837797 108.682434,31.727531 
	C109.646996,32.631237 110.045616,35.980629 109.536667,36.277378 
	C107.870995,37.248589 105.679329,37.317696 103.424179,37.472801 
z"/>
<path fill="#383B3E" opacity="1.000000" stroke="none" 
	d="
M95.322388,91.396263 
	C96.078529,93.466583 96.890259,95.392570 96.726357,97.231613 
	C96.662567,97.947327 94.335480,99.044716 93.155266,98.914833 
	C91.954475,98.782707 90.445770,97.584702 89.863289,96.447922 
	C88.331940,93.459282 90.522812,91.327438 95.322388,91.396263 
z"/>
<path fill="#34373A" opacity="1.000000" stroke="none" 
	d="
M133.306122,122.739044 
	C131.147766,121.979332 129.336197,121.058540 127.524620,120.137741 
	C128.366531,118.548347 128.850403,116.294075 130.166550,115.585312 
	C131.173187,115.043205 134.308548,116.137306 134.583969,117.069099 
	C135.058228,118.673462 134.043015,120.718094 133.306122,122.739044 
z"/>
<path fill="#323538" opacity="1.000000" stroke="none" 
	d="
M129.160583,31.178627 
	C131.355164,31.643553 133.546997,31.982042 135.027863,33.191212 
	C135.528900,33.600327 134.697250,36.868267 133.623199,37.631393 
	C132.568954,38.380444 129.185074,38.003838 129.001801,37.427998 
	C128.416702,35.589527 128.843597,33.428978 129.160583,31.178627 
z"/>
<path fill="#36393C" opacity="1.000000" stroke="none" 
	d="
M71.923965,109.222717 
	C69.451073,111.880737 66.842758,112.059242 65.120895,109.366142 
	C64.364662,108.183372 64.729561,105.179207 65.731041,104.284737 
	C66.752953,103.372009 69.561363,103.409470 70.868782,104.207962 
	C71.864655,104.816177 71.736610,107.264633 71.923965,109.222717 
z"/>
<path fill="#313437" opacity="1.000000" stroke="none" 
	d="
M119.049286,123.154037 
	C115.431877,122.581184 113.514313,120.590149 115.179001,117.630394 
	C115.903435,116.342400 118.937149,116.014694 120.935829,115.976776 
	C121.582031,115.964516 123.064857,118.529335 122.759560,119.448433 
	C122.280907,120.889389 120.608383,121.933769 119.049286,123.154037 
z"/>
<path fill="#36393C" opacity="1.000000" stroke="none" 
	d="
M65.286636,121.877991 
	C63.918320,117.204269 65.389931,114.571281 68.764771,115.261383 
	C70.025215,115.519112 71.592758,116.664848 72.046898,117.796364 
	C72.491318,118.903664 72.041664,121.470657 71.378571,121.708633 
	C69.614838,122.341576 67.524635,122.064781 65.286636,121.877991 
z"/>
<path fill="#373A3D" opacity="1.000000" stroke="none" 
	d="
M46.404095,49.126671 
	C44.138767,49.362946 41.939865,49.715824 40.181778,48.994411 
	C39.558681,48.738731 39.441830,45.546780 40.149673,44.289925 
	C40.713821,43.288223 43.096546,42.473892 44.295235,42.833210 
	C47.165718,43.693665 47.825466,46.043064 46.404095,49.126671 
z"/>
<path fill="#34373A" opacity="1.000000" stroke="none" 
	d="
M135.563599,107.098618 
	C134.445267,111.116669 132.157471,112.472397 128.941101,110.080452 
	C127.961853,109.352196 127.491570,107.065552 127.811249,105.739220 
	C128.070312,104.664352 130.218475,103.015953 130.905380,103.274994 
	C132.642395,103.930008 134.028336,105.516045 135.563599,107.098618 
z"/>
<path fill="#383B3E" opacity="1.000000" stroke="none" 
	d="
M59.702332,144.565689 
	C58.106773,147.524323 55.846291,148.513977 53.511429,146.550919 
	C52.456303,145.663818 51.908249,143.245331 52.303814,141.855713 
	C52.618351,140.750763 55.433643,139.172638 55.893299,139.508560 
	C57.491219,140.676422 58.546860,142.586243 59.702332,144.565689 
z"/>
<path fill="#323538" opacity="1.000000" stroke="none" 
	d="
M106.797989,139.392975 
	C108.139694,141.151062 109.501389,142.740646 109.892845,144.541183 
	C110.045731,145.244370 108.077660,147.109955 106.967148,147.207153 
	C105.611038,147.325882 103.413582,146.521820 102.853523,145.450836 
	C101.020256,141.945190 102.653801,139.862717 106.797989,139.392975 
z"/>
<path fill="#323538" opacity="1.000000" stroke="none" 
	d="
M122.934746,70.878601 
	C121.227486,72.386269 119.619431,74.013969 117.764694,74.375237 
	C116.981270,74.527840 114.818596,71.992432 114.850235,70.717728 
	C114.882744,69.407677 117.153191,66.912216 117.871170,67.102135 
	C119.727402,67.593170 121.267738,69.278328 122.934746,70.878601 
z"/>
<path fill="#36393C" opacity="1.000000" stroke="none" 
	d="
M156.904938,66.770676 
	C160.401337,67.868111 161.908905,70.110588 159.935974,72.831703 
	C159.087433,74.002029 156.240616,74.160706 154.391098,73.958969 
	C153.620956,73.874954 152.242859,71.221001 152.616608,70.490044 
	C153.393265,68.971176 155.154984,67.956009 156.904938,66.770676 
z"/>
<path fill="#34373A" opacity="1.000000" stroke="none" 
	d="
M115.729279,61.490379 
	C115.723770,59.334457 115.437363,57.031513 116.436478,55.676338 
	C117.037979,54.860477 119.962845,54.960693 121.240967,55.696335 
	C122.237488,56.269894 123.037605,58.700470 122.646606,59.883160 
	C121.499916,63.351624 118.922783,63.640465 115.729279,61.490379 
z"/>
<path fill="#36393C" opacity="1.000000" stroke="none" 
	d="
M58.974167,44.201881 
	C58.630569,46.444923 58.373684,48.624359 57.275993,50.228420 
	C56.956074,50.695930 53.582867,50.010666 52.799625,48.963455 
	C52.001698,47.896610 52.059696,45.350677 52.824654,44.130539 
	C54.360706,41.680462 56.684277,42.055992 58.974167,44.201881 
z"/>
<path fill="#313437" opacity="1.000000" stroke="none" 
	d="
M89.550880,143.780090 
	C90.851624,142.059052 92.026825,140.358627 93.647606,139.482834 
	C94.227287,139.169586 96.848709,140.841507 96.855515,141.622025 
	C96.871346,143.437729 96.403053,146.124741 95.158394,146.902695 
	C92.617432,148.490906 90.541214,146.933441 89.550880,143.780090 
z"/>
<path fill="#333639" opacity="1.000000" stroke="none" 
	d="
M104.676910,159.226257 
	C103.828514,157.117279 102.909264,155.112076 103.065155,153.194260 
	C103.114189,152.591019 106.353745,151.465363 107.578102,151.957977 
	C108.816528,152.456253 110.401222,155.516449 110.030678,155.965256 
	C108.797623,157.458649 106.754265,158.282990 104.676910,159.226257 
z"/>
<path fill="#323538" opacity="1.000000" stroke="none" 
	d="
M134.300400,140.640289 
	C134.220200,142.883881 134.241180,145.060364 133.348785,146.756226 
	C133.081741,147.263672 129.682755,146.989105 128.774918,146.050827 
	C127.858521,145.103683 127.656570,141.712128 128.183411,141.444839 
	C129.881088,140.583527 132.058960,140.668762 134.300400,140.640289 
z"/>
<path fill="#333639" opacity="1.000000" stroke="none" 
	d="
M34.509575,69.441971 
	C33.514648,71.448761 32.667309,73.729546 31.079588,74.516449 
	C30.203686,74.950546 27.614021,73.187042 26.710396,71.813370 
	C26.200914,71.038879 27.128012,68.540077 28.140043,67.701134 
	C30.472628,65.767479 32.702969,66.688255 34.509575,69.441971 
z"/>
<path fill="#393B3E" opacity="1.000000" stroke="none" 
	d="
M173.053711,130.237411 
	C171.860657,132.192947 170.801849,134.147736 169.160934,135.134506 
	C168.614075,135.463364 165.795624,133.526382 165.442062,132.234756 
	C165.096863,130.973648 166.605194,127.903084 167.243042,127.918892 
	C169.163803,127.966499 171.056900,129.130371 173.053711,130.237411 
z"/>
<path fill="#36383C" opacity="1.000000" stroke="none" 
	d="
M115.236160,85.007576 
	C115.821030,82.834885 116.232307,80.589104 117.563072,79.273178 
	C118.137032,78.705620 121.267799,79.594872 122.040306,80.676811 
	C122.801437,81.742821 122.318008,85.253670 121.915512,85.333038 
	C119.837669,85.742752 117.610443,85.394981 115.236160,85.007576 
z"/>
<path fill="#393B3E" opacity="1.000000" stroke="none" 
	d="
M21.960146,131.770294 
	C20.113697,133.112976 18.396513,134.472168 16.487682,134.841934 
	C15.856623,134.964157 13.899840,132.430954 14.041942,131.299332 
	C14.220982,129.873566 15.699137,127.881424 17.025705,127.477905 
	C19.981905,126.578659 21.565287,128.523849 21.960146,131.770294 
z"/>
<path fill="#2E3135" opacity="1.000000" stroke="none" 
	d="
M91.062180,122.305099 
	C90.757538,120.153343 90.376434,118.104965 90.940132,116.362183 
	C91.157829,115.689117 93.849533,115.071693 94.820839,115.574638 
	C96.046577,116.209328 97.479378,118.071457 97.394547,119.305931 
	C97.136002,123.068169 94.692856,123.900009 91.062180,122.305099 
z"/>
<path fill="#333639" opacity="1.000000" stroke="none" 
	d="
M53.759087,158.964310 
	C53.045006,157.008453 52.208408,155.161606 52.472878,153.488831 
	C52.605022,152.653000 55.237530,151.275284 55.885693,151.643768 
	C57.475266,152.547501 59.643639,154.321655 59.645046,155.747513 
	C59.648243,158.977341 57.285641,160.170792 53.759087,158.964310 
z"/>
<path fill="#2A2D30" opacity="1.000000" stroke="none" 
	d="
M127.470490,167.191315 
	C129.243561,165.824615 130.897995,164.340225 132.748123,164.032532 
	C133.432449,163.918716 135.398392,166.647018 135.280182,167.942245 
	C135.162369,169.232986 132.697754,171.557373 132.079681,171.317947 
	C130.307739,170.631561 128.950027,168.875778 127.470490,167.191315 
z"/>
<path fill="#323538" opacity="1.000000" stroke="none" 
	d="
M80.151924,91.074944 
	C82.022202,92.402084 83.831520,93.617485 84.794144,95.313469 
	C85.100571,95.853355 83.367500,98.346115 82.183121,98.716881 
	C80.958855,99.100128 78.694427,98.448059 77.891266,97.443985 
	C75.799301,94.828682 76.755890,92.548370 80.151924,91.074944 
z"/>
<path fill="#2E3135" opacity="1.000000" stroke="none" 
	d="
M53.734940,171.024384 
	C53.122177,168.936264 52.466465,166.963181 52.764938,165.146896 
	C52.879147,164.451904 55.765903,163.326492 56.360149,163.771469 
	C57.827415,164.870193 59.720226,166.851700 59.593903,168.319305 
	C59.346302,171.195938 56.983055,172.246643 53.734940,171.024384 
z"/>
<path fill="#2A2D30" opacity="1.000000" stroke="none" 
	d="
M96.370636,158.377792 
	C94.126259,158.288635 91.948631,158.297089 90.231590,157.412018 
	C89.661964,157.118408 89.729874,154.102097 90.504189,153.107285 
	C91.270363,152.122925 93.522331,151.425781 94.725304,151.818756 
	C97.931389,152.866058 98.129318,155.369080 96.370636,158.377792 
z"/>
<path fill="#3A3D40" opacity="1.000000" stroke="none" 
	d="
M82.420151,135.106628 
	C77.459030,134.616501 75.237167,131.653946 77.720589,129.119476 
	C78.826355,127.990967 82.044479,127.358223 83.177422,128.137711 
	C86.093307,130.143845 85.749870,132.862015 82.420151,135.106628 
z"/>
<path fill="#2E3134" opacity="1.000000" stroke="none" 
	d="
M127.586136,154.428925 
	C129.565582,153.379196 131.455017,152.228714 133.354813,152.211288 
	C134.012100,152.205261 135.490433,155.234726 135.146088,156.476059 
	C134.791367,157.754608 131.955063,159.661301 131.456650,159.341522 
	C129.830276,158.298111 128.775101,156.364334 127.586136,154.428925 
z"/>
<path fill="#34373B" opacity="1.000000" stroke="none" 
	d="
M41.696827,147.162079 
	C40.871120,145.051971 39.976685,143.042419 40.137245,141.121017 
	C40.187778,140.516281 43.389008,139.386734 44.566051,139.881729 
	C45.789246,140.396118 47.338505,143.368973 46.939236,143.894348 
	C45.794525,145.400650 43.735462,146.212082 41.696827,147.162079 
z"/>
<path fill="#36383C" opacity="1.000000" stroke="none" 
	d="
M102.458679,129.600006 
	C104.623123,128.870193 106.689728,128.026566 108.574043,128.326843 
	C109.239670,128.432922 110.214188,131.677460 109.673302,132.860977 
	C109.123940,134.063049 106.032135,135.489517 105.536110,135.069031 
	C104.062492,133.819839 103.318321,131.710144 102.458679,129.600006 
z"/>
<path fill="#373A3D" opacity="1.000000" stroke="none" 
	d="
M144.006714,127.190010 
	C145.581512,128.855637 147.196091,130.398651 147.733932,132.253830 
	C147.915176,132.879013 145.364395,135.119492 144.060287,135.121170 
	C142.748688,135.122864 140.186432,132.927933 140.359344,132.272690 
	C140.848221,130.419998 142.457611,128.862961 144.006714,127.190010 
z"/>
<path fill="#313437" opacity="1.000000" stroke="none" 
	d="
M95.785919,31.195253 
	C96.115547,33.457272 96.516396,35.598560 95.989311,37.479866 
	C95.846176,37.990738 92.419548,38.379341 91.377754,37.619892 
	C90.302635,36.836151 89.467491,33.596455 89.981812,33.164989 
	C91.422173,31.956673 93.613235,31.643244 95.785919,31.195253 
z"/>
<path fill="#36393C" opacity="1.000000" stroke="none" 
	d="
M141.265808,61.674576 
	C141.265350,59.370720 141.170990,57.164352 142.021317,55.417957 
	C142.277435,54.891930 145.729401,55.056293 146.678345,55.976212 
	C147.631470,56.900173 147.959473,60.279934 147.387711,60.622078 
	C145.756195,61.598385 143.527786,61.577221 141.265808,61.674576 
z"/>
<path fill="#313437" opacity="1.000000" stroke="none" 
	d="
M108.145988,55.219910 
	C110.911720,57.673721 111.161507,60.331467 108.296906,61.965744 
	C107.050949,62.676571 104.425705,61.687218 102.849556,60.755238 
	C102.202187,60.372452 102.087097,57.387890 102.754013,56.845070 
	C104.064629,55.778313 106.091995,55.592175 108.145988,55.219910 
z"/>
<path fill="#373A3D" opacity="1.000000" stroke="none" 
	d="
M84.979034,58.982185 
	C83.297722,60.482853 81.718178,62.184048 79.925980,62.449482 
	C79.139183,62.566013 77.202339,59.788349 77.132942,58.263599 
	C77.081795,57.139713 79.617973,54.735352 80.292244,54.966839 
	C82.066231,55.575878 83.453247,57.312069 84.979034,58.982185 
z"/>
<path fill="#34373A" opacity="1.000000" stroke="none" 
	d="
M121.806442,97.859154 
	C118.515541,99.890068 115.759544,99.368538 114.996048,95.994247 
	C114.691452,94.648064 116.699875,91.760872 118.231766,91.225998 
	C121.547707,90.068192 123.343407,93.249794 121.806442,97.859154 
z"/>
<path fill="#323538" opacity="1.000000" stroke="none" 
	d="
M129.601410,55.121765 
	C133.667236,54.402122 135.936691,55.791767 135.216766,59.728722 
	C134.998306,60.923416 133.163879,62.353245 131.840622,62.648239 
	C130.771912,62.886494 128.384308,61.697456 128.293167,60.936607 
	C128.075165,59.116581 128.866455,57.175659 129.601410,55.121765 
z"/>
<path fill="#373A3D" opacity="1.000000" stroke="none" 
	d="
M21.467701,56.862373 
	C20.897955,58.975815 20.503284,61.101620 19.250183,62.397015 
	C18.704750,62.960854 15.545084,62.255260 15.083775,61.353336 
	C14.344938,59.908802 14.129119,57.248020 15.004868,56.124245 
	C16.818775,53.796593 19.331537,54.126057 21.467701,56.862373 
z"/>
<path fill="#323538" opacity="1.000000" stroke="none" 
	d="
M95.929749,103.887177 
	C96.317146,106.047997 96.776260,108.083260 96.304817,109.873466 
	C96.127174,110.548065 93.633392,111.203796 92.489525,110.867607 
	C91.332169,110.527451 90.048607,109.098137 89.680534,107.884941 
	C88.702072,104.659889 91.254189,102.939590 95.929749,103.887177 
z"/>
<path fill="#2A2D30" opacity="1.000000" stroke="none" 
	d="
M102.907440,20.050161 
	C105.145172,17.776558 107.426956,17.521418 109.006355,19.875044 
	C109.800163,21.057970 110.016815,23.584341 109.267799,24.584938 
	C108.475014,25.644011 105.232567,26.426607 104.802040,25.901577 
	C103.609589,24.447344 103.324020,22.249472 102.907440,20.050161 
z"/>
<path fill="#303336" opacity="1.000000" stroke="none" 
	d="
M142.546478,74.442139 
	C141.717300,72.351601 140.816025,70.361984 141.005554,68.482361 
	C141.068176,67.861320 144.260864,66.768936 145.446747,67.265854 
	C146.672592,67.779518 148.222214,70.791580 147.841125,71.262314 
	C146.647125,72.737129 144.609940,73.529297 142.546478,74.442139 
z"/>
<path fill="#383B3E" opacity="1.000000" stroke="none" 
	d="
M165.159470,83.679199 
	C165.214859,79.944916 167.182953,78.135551 170.200073,79.166397 
	C171.548508,79.627113 172.520554,82.270752 172.859650,84.074791 
	C172.996292,84.801720 170.821625,86.837578 169.976959,86.689644 
	C168.297562,86.395531 166.810928,85.000725 165.159470,83.679199 
z"/>
<path fill="#323538" opacity="1.000000" stroke="none" 
	d="
M78.810135,18.914299 
	C80.962112,19.356722 83.245827,19.560846 84.430420,20.808521 
	C85.086212,21.499228 84.392593,24.416471 83.394165,25.435194 
	C82.586189,26.259588 80.045639,26.370058 78.917381,25.705017 
	C75.970978,23.968275 76.208633,21.479454 78.810135,18.914299 
z"/>
<path fill="#34373A" opacity="1.000000" stroke="none" 
	d="
M170.669601,67.044373 
	C171.629944,69.038467 172.581528,70.888840 172.578064,72.737427 
	C172.576767,73.420479 170.019562,74.920670 169.170425,74.602180 
	C167.598389,74.012543 165.469589,72.491638 165.277451,71.119827 
	C164.815704,67.823166 167.063065,66.495956 170.669601,67.044373 
z"/>
<path fill="#34373B" opacity="1.000000" stroke="none" 
	d="
M15.291687,67.674042 
	C17.540276,67.953667 19.754219,68.110489 21.343981,69.188126 
	C21.881821,69.552704 21.366798,72.909073 20.377008,73.696266 
	C19.323795,74.533897 15.949978,74.488564 15.671784,73.878761 
	C14.882833,72.149384 15.157216,69.934914 15.291687,67.674042 
z"/>
<path fill="#303336" opacity="1.000000" stroke="none" 
	d="
M93.153412,62.824379 
	C91.767212,61.002594 90.337051,59.317753 89.957275,57.422440 
	C89.836357,56.819008 92.585487,54.851284 93.879120,54.976547 
	C95.161842,55.100754 97.455444,57.510555 97.219704,58.155613 
	C96.566582,59.942814 94.826622,61.332829 93.153412,62.824379 
z"/>
<path fill="#34373B" opacity="1.000000" stroke="none" 
	d="
M91.070023,79.685257 
	C93.285851,80.037766 95.499496,80.257584 96.980766,81.414841 
	C97.531273,81.844933 96.866982,85.105591 95.841118,85.914818 
	C94.838493,86.705711 91.483925,86.497955 91.235909,85.886810 
	C90.521790,84.127197 90.855202,81.942444 91.070023,79.685257 
z"/>
<path fill="#323538" opacity="1.000000" stroke="none" 
	d="
M90.042221,68.745956 
	C92.288185,66.252968 94.764214,65.835785 96.457397,68.326591 
	C97.276924,69.532173 97.178284,72.496132 96.250633,73.437897 
	C95.312599,74.390190 92.482185,74.461838 91.151169,73.718597 
	C90.165337,73.168121 90.253242,70.694778 90.042221,68.745956 
z"/>
<path fill="#36383C" opacity="1.000000" stroke="none" 
	d="
M55.208473,135.276184 
	C53.875626,133.553482 52.399490,131.973038 52.140884,130.213669 
	C52.020065,129.391708 54.192894,127.517891 55.438091,127.409744 
	C56.697140,127.300377 58.793659,128.477081 59.299465,129.628204 
	C60.779514,132.996475 59.033249,134.880325 55.208473,135.276184 
z"/>
<path fill="#34373A" opacity="1.000000" stroke="none" 
	d="
M43.074089,127.192055 
	C44.669949,128.830261 46.302433,130.346802 46.869583,132.190964 
	C47.060581,132.812042 44.555824,135.092209 43.265312,135.107483 
	C41.951588,135.123016 39.368217,132.984573 39.528954,132.313004 
	C39.972065,130.461685 41.559471,128.884232 43.074089,127.192055 
z"/>
<path fill="#36383C" opacity="1.000000" stroke="none" 
	d="
M168.311646,115.253754 
	C170.155930,116.204567 172.151016,116.968475 172.896210,118.388367 
	C173.366257,119.283981 172.334061,121.612732 171.293121,122.457077 
	C170.426392,123.160118 168.366074,123.089256 167.183060,122.568764 
	C164.119370,121.220818 164.512512,118.116005 168.311646,115.253754 
z"/>
<path fill="#36383C" opacity="1.000000" stroke="none" 
	d="
M59.494736,60.434654 
	C57.479965,61.263988 55.485386,62.375019 53.827778,61.999321 
	C52.911129,61.791557 51.919182,58.986870 52.158260,57.552322 
	C52.343601,56.440239 54.604626,54.690655 55.552692,54.910152 
	C57.137577,55.277092 58.481228,56.918705 59.763187,58.188560 
	C60.062908,58.485458 59.708881,59.442337 59.494736,60.434654 
z"/>
<path fill="#333639" opacity="1.000000" stroke="none" 
	d="
M39.599152,56.876129 
	C41.776829,56.255913 43.877087,55.528137 45.752037,55.909122 
	C46.381905,56.037113 47.156902,59.350765 46.552723,60.543118 
	C45.961441,61.710007 42.745808,62.962959 42.341309,62.550587 
	C40.974747,61.157433 40.345078,59.041451 39.599152,56.876129 
z"/>
<path fill="#333639" opacity="1.000000" stroke="none" 
	d="
M58.048054,103.812454 
	C58.436527,106.057098 58.860531,108.185143 58.353336,110.061462 
	C58.196316,110.642342 55.034809,111.223770 54.096611,110.576393 
	C52.906754,109.755356 51.799698,107.542923 52.042664,106.177002 
	C52.576168,103.177719 54.898106,102.434090 58.048054,103.812454 
z"/>
<path fill="#2A2D30" opacity="1.000000" stroke="none" 
	d="
M89.526619,167.870117 
	C90.866341,166.173157 92.076843,164.491821 93.717964,163.653961 
	C94.313438,163.349930 96.807785,164.968826 96.903702,165.872894 
	C97.080002,167.534485 96.661636,170.136963 95.526993,170.885208 
	C92.789833,172.690247 90.580978,171.326248 89.526619,167.870117 
z"/>
<path fill="#2E3134" opacity="1.000000" stroke="none" 
	d="
M107.569229,171.357635 
	C105.509865,170.356201 103.805290,169.223358 102.100708,168.090500 
	C103.138794,166.605392 103.898376,164.428879 105.306244,163.861771 
	C106.364357,163.435562 109.383347,164.901276 109.527687,165.834381 
	C109.786720,167.508896 108.540939,169.416199 107.569229,171.357635 
z"/>
<path fill="#2E3135" opacity="1.000000" stroke="none" 
	d="
M59.437714,20.700033 
	C58.628807,22.775829 57.947227,24.897141 56.499863,26.086721 
	C55.953960,26.535391 52.886475,25.179520 52.335781,24.005117 
	C51.780102,22.820086 52.720051,19.549395 53.354633,19.451090 
	C55.230492,19.160494 57.279247,19.985971 59.437714,20.700033 
z"/>
<path fill="#2A2D30" opacity="1.000000" stroke="none" 
	d="
M97.145462,24.139702 
	C94.675438,27.290150 91.961723,27.234127 90.236694,24.298944 
	C89.560616,23.148586 90.482513,20.031057 91.690865,19.011726 
	C94.340454,16.776609 97.099297,19.255259 97.145462,24.139702 
z"/>
<path fill="#303336" opacity="1.000000" stroke="none" 
	d="
M43.108086,74.790451 
	C39.934544,73.986359 38.162025,72.187798 39.598003,69.425255 
	C40.267509,68.137245 42.877769,66.808357 44.134872,67.165329 
	C45.439331,67.535759 46.901718,69.916527 46.912449,71.427902 
	C46.920387,72.546761 44.713978,73.681351 43.108086,74.790451 
z"/>
<path fill="#323538" opacity="1.000000" stroke="none" 
	d="
M80.970795,66.780830 
	C84.692635,67.528748 86.003082,69.937561 84.415848,72.570984 
	C83.683861,73.785423 80.251434,74.507019 78.707664,73.862099 
	C75.452721,72.502319 76.477898,68.894997 80.970795,66.780830 
z"/>
<path fill="#34373A" opacity="1.000000" stroke="none" 
	d="
M18.754164,123.087250 
	C16.850830,121.811653 14.990965,120.650093 14.042644,118.973076 
	C13.753815,118.462311 15.810856,115.742332 17.094973,115.473366 
	C18.375492,115.205139 21.313566,116.801529 21.282185,117.476074 
	C21.195116,119.347496 19.940926,121.164627 18.754164,123.087250 
z"/>
<path fill="#323538" opacity="1.000000" stroke="none" 
	d="
M51.869953,95.803841 
	C53.178429,93.939171 54.356033,92.058914 56.048920,91.226158 
	C56.651413,90.929779 59.294018,93.012573 59.562546,94.308327 
	C59.825134,95.575409 58.144783,98.513550 57.499451,98.461464 
	C55.598637,98.308037 53.788136,97.035706 51.869953,95.803841 
z"/>
<path fill="#333639" opacity="1.000000" stroke="none" 
	d="
M81.743385,115.236969 
	C82.984482,117.185799 84.184097,118.996292 84.468239,120.940567 
	C84.539978,121.431366 81.533379,123.116592 80.220169,122.854744 
	C78.920685,122.595619 76.812531,119.906456 77.080238,119.437820 
	C78.047318,117.744957 79.865639,116.538391 81.743385,115.236969 
z"/>
<path fill="#323538" opacity="1.000000" stroke="none" 
	d="
M105.286163,123.078362 
	C104.087357,121.137566 102.848640,119.319511 102.717766,117.424927 
	C102.674637,116.800674 105.674561,115.180977 106.956902,115.468910 
	C108.266434,115.762939 110.337540,118.512749 110.047127,119.015167 
	C109.082153,120.684624 107.205086,121.826881 105.286163,123.078362 
z"/>
<path fill="#313437" opacity="1.000000" stroke="none" 
	d="
M84.985992,107.112434 
	C83.356949,108.697235 81.841606,110.335472 80.015327,110.833504 
	C79.351883,111.014442 77.129890,108.486710 77.109344,107.171570 
	C77.088882,105.861420 79.296211,103.259438 79.899696,103.430901 
	C81.753403,103.957550 83.306648,105.541710 84.985992,107.112434 
z"/>
<path fill="#323538" opacity="1.000000" stroke="none" 
	d="
M140.091003,118.348572 
	C141.829575,114.867416 144.340195,113.879959 146.755417,116.567543 
	C147.682281,117.598923 147.596283,120.875336 146.642014,121.980484 
	C144.740906,124.182106 142.197495,123.569191 140.521545,121.072639 
	C140.106964,120.455063 140.165833,119.519669 140.091003,118.348572 
z"/>
<path fill="#313437" opacity="1.000000" stroke="none" 
	d="
M21.282516,109.305740 
	C19.056332,109.738174 16.890839,110.269730 15.087487,109.684799 
	C14.433379,109.472633 13.952618,106.147736 14.655153,105.053917 
	C15.362672,103.952347 18.600702,102.992889 19.044807,103.486702 
	C20.316399,104.900581 20.733412,107.083031 21.282516,109.305740 
z"/>
<path fill="#36393C" opacity="1.000000" stroke="none" 
	d="
M173.122406,95.812317 
	C171.200623,97.036194 169.379898,98.343239 167.496246,98.441299 
	C166.784821,98.478340 165.113968,95.560898 165.365417,94.282272 
	C165.618790,92.993942 168.288467,90.905838 168.896027,91.205124 
	C170.606293,92.047615 171.800659,93.937462 173.122406,95.812317 
z"/>
<path fill="#313437" opacity="1.000000" stroke="none" 
	d="
M40.916130,98.321503 
	C40.563744,96.071419 40.129177,93.934036 40.712799,92.125160 
	C40.898930,91.548279 44.254566,91.180595 45.310257,91.923927 
	C46.390091,92.684265 47.250778,95.935326 46.767593,96.329018 
	C45.293495,97.530106 43.126007,97.880203 40.916130,98.321503 
z"/>
<path fill="#333639" opacity="1.000000" stroke="none" 
	d="
M17.121464,91.071411 
	C19.002733,92.396629 20.809269,93.620651 21.800608,95.320183 
	C22.094736,95.824432 20.245764,98.478584 19.108963,98.688873 
	C17.702187,98.949120 15.380953,98.136368 14.577840,96.996162 
	C12.823488,94.505447 13.954651,92.353073 17.121464,91.071411 
z"/>
<path fill="#34373A" opacity="1.000000" stroke="none" 
	d="
M172.926666,108.658524 
	C170.813339,109.504646 168.767944,110.439003 166.889725,110.176651 
	C166.181641,110.077744 165.089966,106.897179 165.578156,105.689293 
	C166.073334,104.464134 169.099533,102.903091 169.622528,103.304832 
	C171.143036,104.472816 171.965073,106.550072 172.926666,108.658524 
z"/>
<path fill="#333639" opacity="1.000000" stroke="none" 
	d="
M82.520416,86.617401 
	C77.730659,86.273132 75.676086,83.983841 77.383110,81.184639 
	C78.040230,80.107086 79.721878,78.945915 80.836388,79.037941 
	C82.180130,79.148888 84.362587,80.435036 84.484924,81.422676 
	C84.681992,83.013763 83.489883,84.776909 82.520416,86.617401 
z"/>
<path fill="#333639" opacity="1.000000" stroke="none" 
	d="
M141.792526,79.547928 
	C145.023071,78.200142 147.376373,79.125862 147.758591,82.101021 
	C147.940857,83.519875 146.368820,86.129021 145.097061,86.498795 
	C143.820908,86.869850 141.447876,85.480759 140.487335,84.176720 
	C139.903152,83.383644 141.082840,81.291298 141.792526,79.547928 
z"/>
<path fill="#333639" opacity="1.000000" stroke="none" 
	d="
M52.414238,68.594818 
	C54.656212,68.194191 56.818127,67.689941 58.602886,68.296127 
	C59.264515,68.520844 59.732567,71.814560 59.029243,72.866394 
	C58.304665,73.950020 55.135693,74.871902 54.635509,74.345352 
	C53.346916,72.988838 52.942307,70.792603 52.414238,68.594818 
z"/>
<path fill="#333639" opacity="1.000000" stroke="none" 
	d="
M52.938789,121.987587 
	C51.374023,117.281273 53.161732,114.154282 56.438072,115.412834 
	C57.920399,115.982246 59.821381,118.586563 59.579735,119.911606 
	C58.948017,123.375603 56.312477,124.013214 52.938789,121.987587 
z"/>
<path fill="#2E3135" opacity="1.000000" stroke="none" 
	d="
M103.912674,74.078918 
	C101.413513,71.707314 101.282562,69.151382 103.871223,67.715569 
	C105.173233,66.993401 107.729202,67.826988 109.329842,68.683037 
	C110.003166,69.043144 110.234917,72.146729 109.691643,72.499207 
	C108.147804,73.500847 106.101379,73.727844 103.912674,74.078918 
z"/>
<path fill="#333639" opacity="1.000000" stroke="none" 
	d="
M57.380821,86.566513 
	C54.079548,87.254669 51.942074,86.099419 51.971687,83.096367 
	C51.985279,81.718170 53.599258,79.360420 54.698120,79.230667 
	C56.199684,79.053360 58.731434,80.216751 59.278824,81.476028 
	C59.797832,82.670013 58.327908,84.728561 57.380821,86.566513 
z"/>
<path fill="#2E3134" opacity="1.000000" stroke="none" 
	d="
M131.104233,26.349377 
	C129.645172,24.718199 128.075714,23.240435 127.725304,21.515091 
	C127.559677,20.699598 129.717239,18.562773 130.842957,18.547422 
	C132.282104,18.527800 134.470840,19.710167 135.049896,20.967215 
	C136.498444,24.111725 134.621246,25.841997 131.104233,26.349377 
z"/>
<path fill="#34373A" opacity="1.000000" stroke="none" 
	d="
M46.884689,81.389931 
	C45.947517,83.476051 45.122166,85.496323 43.635883,86.701515 
	C43.180603,87.070694 40.184872,85.503151 39.682636,84.277473 
	C39.192848,83.082161 40.274910,79.905212 40.891750,79.843430 
	C42.783981,79.653923 44.784103,80.541656 46.884689,81.389931 
z"/>
<path fill="#34373B" opacity="1.000000" stroke="none" 
	d="
M16.372896,79.162750 
	C18.462509,80.102806 20.500713,80.929268 21.708500,82.425888 
	C22.090097,82.898735 20.551004,85.915451 19.343353,86.398224 
	C18.129190,86.883591 14.963171,85.825592 14.878134,85.159698 
	C14.639053,83.287544 15.545557,81.269096 16.372896,79.162750 
z"/>
<path fill="#303336" opacity="1.000000" stroke="none" 
	d="
M140.713135,104.846626 
	C142.835922,104.371590 144.898026,103.745201 146.578156,104.292168 
	C147.367126,104.549011 148.201828,107.611084 147.628006,108.432869 
	C146.718140,109.735947 144.487091,111.117912 143.094376,110.873642 
	C140.208374,110.367462 139.376938,107.998283 140.713135,104.846626 
z"/>
<path fill="#333639" opacity="1.000000" stroke="none" 
	d="
M47.091774,118.324738 
	C45.830662,120.208290 44.696857,122.121292 43.024117,122.962128 
	C42.398834,123.276436 39.731293,121.275002 39.431900,119.993690 
	C39.139038,118.740364 40.748093,115.772629 41.397156,115.808723 
	C43.299809,115.914490 45.140175,117.140808 47.091774,118.324738 
z"/>
<path fill="#2E3134" opacity="1.000000" stroke="none" 
	d="
M108.395790,110.542389 
	C105.202293,111.792511 102.897247,110.892670 102.350075,108.004486 
	C102.098709,106.677666 103.341881,104.070854 104.431068,103.733009 
	C105.872368,103.285965 108.593704,103.991890 109.342690,105.134521 
	C110.071785,106.246803 109.007370,108.534721 108.395790,110.542389 
z"/>
<path fill="#323538" opacity="1.000000" stroke="none" 
	d="
M47.138947,107.899612 
	C45.228870,109.152901 43.423466,110.472343 41.534904,110.604637 
	C40.845627,110.652908 39.156937,107.736305 39.388409,106.432220 
	C39.617634,105.140785 42.291386,103.004059 42.846497,103.287498 
	C44.568523,104.166763 45.793083,106.020325 47.138947,107.899612 
z"/>
<path fill="#323538" opacity="1.000000" stroke="none" 
	d="
M147.986740,95.825615 
	C146.181198,97.090302 144.513885,98.366745 142.695862,98.639801 
	C141.981018,98.747169 140.218582,96.614983 140.213089,95.496391 
	C140.206421,94.135094 141.234634,92.020126 142.368271,91.541725 
	C145.816269,90.086662 147.669540,91.917671 147.986740,95.825615 
z"/>
<path fill="#2E3135" opacity="1.000000" stroke="none" 
	d="
M108.965805,97.898132 
	C106.694656,97.824219 104.497841,97.818695 102.817375,96.884407 
	C102.284370,96.588074 102.568619,93.234695 103.498619,92.338676 
	C104.435692,91.435844 107.746094,91.220345 108.077873,91.804619 
	C109.002846,93.433495 108.923035,95.632927 108.965805,97.898132 
z"/>
<path fill="#303336" opacity="1.000000" stroke="none" 
	d="
M107.610748,86.633339 
	C105.540619,85.671402 103.832016,84.553474 102.123413,83.435562 
	C103.143394,81.950539 103.880325,79.780762 105.275726,79.203979 
	C106.332092,78.767334 109.355972,80.179024 109.505569,81.094719 
	C109.777794,82.760948 108.565254,84.669762 107.610748,86.633339 
z"/>
</svg>