<svg version="1.1" id="Layer_1" xmlns="http://www.w3.org/2000/svg" xmlns:xlink="http://www.w3.org/1999/xlink" x="0px" y="0px"
	 width="100%" viewBox="0 0 512 512" enable-background="new 0 0 512 512" xml:space="preserve">
<path fill="#000000" opacity="1.000000" stroke="none" 
	d="
M273.000000,513.000000 
	C182.022079,513.000000 91.544159,513.000000 1.033118,513.000000 
	C1.033118,342.397064 1.033118,171.794098 1.033118,1.095572 
	C171.561279,1.095572 342.122620,1.095572 512.841980,1.095572 
	C512.841980,171.666550 512.841980,342.333252 512.841980,513.000000 
	C433.127411,513.000000 353.313690,513.000000 273.000000,513.000000 
M206.500000,471.000732 
	C278.983917,471.000732 351.467865,471.014862 423.951752,470.958649 
	C427.541809,470.955872 431.141479,470.425201 434.719513,469.996796 
	C455.449829,467.514740 470.953400,448.976318 470.967163,427.329193 
	C471.038544,315.020660 471.010132,202.712051 470.958923,90.403473 
	C470.957214,86.647232 470.512451,82.866539 469.980072,79.139259 
	C466.979431,58.131378 449.249420,43.102547 427.740692,43.072697 
	C314.765808,42.915901 201.790573,42.991486 88.815491,43.040390 
	C85.725540,43.041729 82.635620,43.651814 79.546074,43.981632 
	C58.760429,46.200562 42.966583,65.217545 42.976395,87.401855 
	C43.026356,200.376938 42.963837,313.352142 43.111423,426.327026 
	C43.118336,431.615295 44.058762,437.139832 45.764351,442.145508 
	C51.830036,459.947449 67.140198,470.670654 85.527863,470.868134 
	C125.514435,471.297577 165.508804,471.000702 206.500000,471.000732 
z"/>
<path fill="#9BA4B4" opacity="1.000000" stroke="none" 
	d="
M206.000000,471.000732 
	C165.508804,471.000702 125.514435,471.297577 85.527863,470.868134 
	C67.140198,470.670654 51.830036,459.947449 45.764351,442.145508 
	C44.058762,437.139832 43.118336,431.615295 43.111423,426.327026 
	C42.963837,313.352142 43.026356,200.376938 42.976395,87.401855 
	C42.966583,65.217545 58.760429,46.200562 79.546074,43.981632 
	C82.635620,43.651814 85.725540,43.041729 88.815491,43.040390 
	C201.790573,42.991486 314.765808,42.915901 427.740692,43.072697 
	C449.249420,43.102547 466.979431,58.131378 469.980072,79.139259 
	C470.512451,82.866539 470.957214,86.647232 470.958923,90.403473 
	C471.010132,202.712051 471.038544,315.020660 470.967163,427.329193 
	C470.953400,448.976318 455.449829,467.514740 434.719513,469.996796 
	C431.141479,470.425201 427.541809,470.955872 423.951752,470.958649 
	C351.467865,471.014862 278.983917,471.000732 206.000000,471.000732 
M255.029831,340.358459 
	C241.664917,326.896545 228.300003,313.434631 215.584076,300.626404 
	C172.928375,343.282928 130.745514,385.466614 88.623940,427.589020 
	C89.620949,427.643433 91.217400,427.806641 92.813866,427.806824 
	C202.426971,427.818756 312.040131,427.790894 421.653107,427.908875 
	C426.358978,427.913940 427.946045,426.737732 427.922241,421.811859 
	C427.733887,382.831818 427.780334,343.850372 427.879639,304.869659 
	C427.888794,301.275940 426.911133,298.626099 424.317139,296.057739 
	C405.377228,277.304626 386.576935,258.410522 367.717499,239.576065 
	C366.473419,238.333649 365.105103,237.215652 363.092407,235.409729 
	C359.253082,239.565491 355.877594,243.472244 352.239655,247.117004 
	C321.877350,277.536102 291.485992,307.926331 261.007080,338.228424 
	C259.655914,339.571747 257.373688,339.978607 255.029831,340.358459 
M152.812622,226.750488 
	C164.854630,233.938309 177.432724,237.889465 191.749344,234.881561 
	C225.686340,227.751465 242.880905,195.854095 232.228180,164.084274 
	C224.582535,141.282547 202.421387,127.546577 178.464844,129.101440 
	C155.457275,130.594727 134.942871,147.696167 130.192368,170.908356 
	C125.509758,193.788651 133.494247,212.380997 152.812622,226.750488 
z"/>
<path fill="#495B7A" opacity="1.000000" stroke="none" 
	d="
M255.277496,340.590088 
	C257.373688,339.978607 259.655914,339.571747 261.007080,338.228424 
	C291.485992,307.926331 321.877350,277.536102 352.239655,247.117004 
	C355.877594,243.472244 359.253082,239.565491 363.092407,235.409729 
	C365.105103,237.215652 366.473419,238.333649 367.717499,239.576065 
	C386.576935,258.410522 405.377228,277.304626 424.317139,296.057739 
	C426.911133,298.626099 427.888794,301.275940 427.879639,304.869659 
	C427.780334,343.850372 427.733887,382.831818 427.922241,421.811859 
	C427.946045,426.737732 426.358978,427.913940 421.653107,427.908875 
	C312.040131,427.790894 202.426971,427.818756 92.813866,427.806824 
	C91.217400,427.806641 89.620949,427.643433 88.623940,427.589020 
	C130.745514,385.466614 172.928375,343.282928 215.584076,300.626404 
	C228.300003,313.434631 241.664917,326.896545 255.277496,340.590088 
z"/>
<path fill="#495B7A" opacity="1.000000" stroke="none" 
	d="
M152.513809,226.544495 
	C133.494247,212.380997 125.509758,193.788651 130.192368,170.908356 
	C134.942871,147.696167 155.457275,130.594727 178.464844,129.101440 
	C202.421387,127.546577 224.582535,141.282547 232.228180,164.084274 
	C242.880905,195.854095 225.686340,227.751465 191.749344,234.881561 
	C177.432724,237.889465 164.854630,233.938309 152.513809,226.544495 
z"/>
</svg>